<?xml version="1.0" encoding="utf-8"?>
<!-- Generator: Adobe Illustrator 16.0.3, SVG Export Plug-In . SVG Version: 6.00 Build 0)  -->
<!DOCTYPE svg PUBLIC "-//W3C//DTD SVG 1.1//EN" "http://www.w3.org/Graphics/SVG/1.1/DTD/svg11.dtd">
<svg version="1.1" id="Layer_1" xmlns="http://www.w3.org/2000/svg" xmlns:xlink="http://www.w3.org/1999/xlink" x="0px" y="0px"
	 width="897.031px" height="367.667px" viewBox="0 0 897.031 367.667" enable-background="new 0 0 897.031 367.667"
	 xml:space="preserve">
<rect x="1.551" fill="#EF3B39" width="895.479" height="367.667"/>
<rect x="1780.186" y="109.881" fill="none" width="98.934" height="259.847"/>
<g>
	<g>
		<defs>
			<rect id="SVGID_1_" x="556.094" y="83.031" width="210.632" height="210.631"/>
		</defs>
		<clipPath id="SVGID_2_">
			<use xlink:href="#SVGID_1_"  overflow="visible"/>
		</clipPath>
		<rect x="556.094" y="83.031" clip-path="url(#SVGID_2_)" fill="#EF3B39" width="210.632" height="210.631"/>
		<polygon clip-path="url(#SVGID_2_)" fill="#FFFFFF" points="646.983,224.727 628.273,224.727 628.273,151.968 646.983,151.968 
			646.983,180.551 656.338,180.551 672.553,151.968 692.302,151.968 671.929,187.828 692.197,224.727 672.449,224.727 
			656.338,195.104 646.983,195.104 		"/>
		<path clip-path="url(#SVGID_2_)" fill="#FFFFFF" d="M688.555,117.907h-17.961h-81.923v140.88h81.923h17.961h40.996v-140.88
			H688.555z M711.219,241.698h-22.665h-17.961h-61.727V134.996h61.727h17.961h22.665V241.698z"/>
	</g>
</g>
<ellipse fill="none" stroke="#FFFFFF" stroke-width="4" stroke-miterlimit="10" cx="661.407" cy="190" rx="207.667" ry="133.667"/>
<g>
	<path fill="#EF3C39" d="M848.954,208.44c-0.039,0-0.078,0-0.104,0h-0.053c-2.857,0-9.531,1.01-9.963,10.41
		c0,0.025-0.014,0.065-0.014,0.104c-0.013,0.079-0.904,9.033,3.252,13.7c1.639,1.861,3.854,2.779,6.738,2.806
		c0.026,0,0.039,0,0.065,0s0.039,0,0.065,0c0.019,0,0.035-0.002,0.055-0.003v-27.015
		C848.982,208.442,848.966,208.441,848.954,208.44z"/>
	<path fill="#EF3C39" d="M849.073,208.44c0.039,0,0.078,0,0.104,0h0.053c2.857,0,9.531,1.01,9.963,10.41
		c0,0.025,0.014,0.065,0.014,0.104c0.013,0.079,0.904,9.033-3.252,13.7c-1.639,1.861-3.854,2.779-6.738,2.806
		c-0.026,0-0.039,0-0.065,0s-0.039,0-0.065,0c-0.019,0-0.035-0.002-0.055-0.003v-27.015
		C849.044,208.442,849.06,208.441,849.073,208.44z"/>
	<g>
		<path fill="#EF3C39" d="M829.908,219.12v15.333l-13.332,11.333l-3.148,18.013l5.814,5.32l4.668,3.089h25.086v-4.016
			c-0.027,0-0.054,0.002-0.081,0.002c-15.771,0-25.196-6.005-25.59-6.267c-0.315-0.196-0.551-0.485-0.682-0.826
			c-0.694-1.756-0.682-5.257-0.669-5.938c0-0.014,0-0.026,0-0.039c0.014-0.105,0.014-0.211,0.014-0.328
			c0.079-2.583,0.249-8.652,5.938-10.606c0.039-0.013,0.08-0.025,0.132-0.039c5.938-1.507,10.829-4.916,10.882-4.955
			c0.799-0.563,1.9-0.367,2.464,0.433s0.367,1.901-0.433,2.465c-0.223,0.144-5.439,3.789-11.969,5.467
			c-3.055,1.087-3.396,4.352-3.488,7.341c0,0.118-0.013,0.224-0.013,0.328c-0.026,1.18,0.065,3.002,0.276,4.051
			c2.136,1.206,10.514,5.388,23.125,5.388c0.031,0,0.062-0.002,0.094-0.002V239c-0.015,0-0.029,0-0.042,0c-0.026,0-0.052,0-0.078,0
			c-0.079,0-0.145,0-0.21,0c-3.842-0.066-6.947-1.417-9.229-3.999c-5.048-5.689-4.209-15.443-4.117-16.374
			c0.328-7.04,3.684-10.383,6.437-11.942c2.74-1.561,5.599-1.797,7.054-1.797h0.078c0.014,0,0.039,0,0.053,0h0.055v-4.074
			l-12.434-0.021L829.908,219.12z"/>
		<path fill="#EF3C39" d="M881.451,245.787l-13.332-11.333V219.12l-6.654-18.328l-12.434,0.021v4.074h0.055c0.014,0,0.039,0,0.053,0
			h0.078c1.455,0,4.313,0.236,7.054,1.797c2.753,1.56,6.108,4.902,6.437,11.942c0.092,0.931,0.931,10.685-4.117,16.374
			c-2.281,2.582-5.387,3.933-9.229,3.999c-0.065,0-0.131,0-0.21,0c-0.026,0-0.052,0-0.078,0c-0.013,0-0.027,0-0.042,0v25.666
			c0.032,0,0.063,0.002,0.094,0.002c12.611,0,20.989-4.182,23.125-5.388c0.211-1.049,0.303-2.871,0.276-4.051
			c0-0.104-0.013-0.21-0.013-0.328c-0.093-2.989-0.434-6.254-3.488-7.341c-6.529-1.678-11.746-5.323-11.969-5.467
			c-0.8-0.563-0.996-1.665-0.433-2.465s1.665-0.996,2.464-0.433c0.053,0.039,4.943,3.448,10.882,4.955
			c0.052,0.014,0.093,0.026,0.132,0.039c5.688,1.954,5.858,8.023,5.938,10.606c0,0.117,0,0.223,0.014,0.328c0,0.013,0,0.025,0,0.039
			c0.013,0.682,0.025,4.183-0.669,5.938c-0.131,0.341-0.366,0.63-0.682,0.826c-0.394,0.262-9.819,6.267-25.59,6.267
			c-0.027,0-0.054-0.002-0.081-0.002v4.016h25.086l4.668-3.089l5.814-5.32L881.451,245.787z"/>
	</g>
	<g>
		<path fill="#FFFFFF" d="M848.888,204.888h-0.078c-1.455,0-4.313,0.236-7.054,1.797c-2.753,1.56-6.108,4.902-6.437,11.942
			c-0.092,0.931-0.931,10.685,4.117,16.374c2.281,2.582,5.387,3.933,9.229,3.999c0.065,0,0.131,0,0.21,0c0.026,0,0.052,0,0.078,0
			c0.013,0,0.027,0,0.042,0v-3.543c-0.02,0-0.036,0.003-0.055,0.003c-0.026,0-0.039,0-0.065,0s-0.039,0-0.065,0
			c-2.885-0.026-5.1-0.944-6.738-2.806c-4.156-4.667-3.265-13.621-3.252-13.7c0-0.038,0.014-0.078,0.014-0.104
			c0.432-9.4,7.105-10.41,9.963-10.41h0.053c0.026,0,0.065,0,0.104,0c0.013,0,0.028,0.001,0.042,0.002v-3.555h-0.055
			C848.927,204.888,848.902,204.888,848.888,204.888z"/>
		<path fill="#FFFFFF" d="M862.707,218.627c-0.328-7.04-3.684-10.383-6.437-11.942c-2.74-1.561-5.599-1.797-7.054-1.797h-0.078
			c-0.014,0-0.039,0-0.053,0h-0.055v3.555c0.014,0,0.029-0.001,0.042-0.002c0.039,0,0.078,0,0.104,0h0.053
			c2.857,0,9.531,1.01,9.963,10.41c0,0.025,0.014,0.065,0.014,0.104c0.013,0.079,0.904,9.033-3.252,13.7
			c-1.639,1.861-3.854,2.779-6.738,2.806c-0.026,0-0.039,0-0.065,0s-0.039,0-0.065,0c-0.019,0-0.035-0.002-0.055-0.003V239
			c0.015,0,0.029,0,0.042,0c0.026,0,0.052,0,0.078,0c0.079,0,0.145,0,0.21,0c3.842-0.066,6.947-1.417,9.229-3.999
			C863.637,229.312,862.798,219.558,862.707,218.627z"/>
	</g>
	<g>
		<path fill="#FFFFFF" d="M825.777,259.28c-0.211-1.049-0.303-2.871-0.276-4.051c0-0.104,0.013-0.21,0.013-0.328
			c0.093-2.989,0.434-6.254,3.488-7.341c6.529-1.678,11.746-5.323,11.969-5.467c0.8-0.563,0.996-1.665,0.433-2.465
			s-1.665-0.996-2.464-0.433c-0.053,0.039-4.943,3.448-10.882,4.955c-0.052,0.014-0.093,0.026-0.132,0.039
			c-5.688,1.954-5.858,8.023-5.938,10.606c0,0.117,0,0.223-0.014,0.328c0,0.013,0,0.025,0,0.039
			c-0.013,0.682-0.025,4.183,0.669,5.938c0.131,0.341,0.366,0.63,0.682,0.826c0.394,0.262,9.819,6.267,25.59,6.267
			c0.027,0,0.054-0.002,0.081-0.002v-3.527c-0.032,0-0.063,0.002-0.094,0.002C836.291,264.668,827.913,260.486,825.777,259.28z"/>
		<path fill="#FFFFFF" d="M876.052,255.164c0-0.014,0-0.026,0-0.039c-0.014-0.105-0.014-0.211-0.014-0.328
			c-0.079-2.583-0.249-8.652-5.938-10.606c-0.039-0.013-0.08-0.025-0.132-0.039c-5.938-1.507-10.829-4.916-10.882-4.955
			c-0.799-0.563-1.9-0.367-2.464,0.433s-0.367,1.901,0.433,2.465c0.223,0.144,5.439,3.789,11.969,5.467
			c3.055,1.087,3.396,4.352,3.488,7.341c0,0.118,0.013,0.224,0.013,0.328c0.026,1.18-0.065,3.002-0.276,4.051
			c-2.136,1.206-10.514,5.388-23.125,5.388c-0.031,0-0.062-0.002-0.094-0.002v3.527c0.027,0,0.054,0.002,0.081,0.002
			c15.771,0,25.196-6.005,25.59-6.267c0.315-0.196,0.551-0.485,0.682-0.826C876.078,259.347,876.065,255.846,876.052,255.164z"/>
	</g>
</g>
<g>
	<path fill="#EF3C39" d="M660.881,295.106c-0.039,0-0.078,0-0.104,0h-0.053c-2.857,0-9.531,1.01-9.963,10.41
		c0,0.025-0.014,0.065-0.014,0.104c-0.013,0.079-0.904,9.033,3.252,13.7c1.639,1.861,3.854,2.779,6.738,2.806
		c0.026,0,0.039,0,0.065,0s0.039,0,0.065,0c0.019,0,0.035-0.002,0.055-0.003v-27.015
		C660.91,295.108,660.894,295.107,660.881,295.106z"/>
	<path fill="#EF3C39" d="M661,295.106c0.039,0,0.078,0,0.104,0h0.053c2.857,0,9.531,1.01,9.963,10.41
		c0,0.025,0.014,0.065,0.014,0.104c0.013,0.079,0.904,9.033-3.252,13.7c-1.639,1.861-3.854,2.779-6.738,2.806
		c-0.026,0-0.039,0-0.065,0s-0.039,0-0.065,0c-0.019,0-0.035-0.002-0.055-0.003v-27.015
		C660.972,295.108,660.988,295.107,661,295.106z"/>
	<g>
		<path fill="#EF3C39" d="M641.835,305.786v15.333l-13.332,11.333l-3.148,18.013l5.814,5.32l4.668,3.089h25.086v-4.016
			c-0.027,0-0.054,0.002-0.081,0.002c-15.771,0-25.196-6.005-25.59-6.267c-0.315-0.196-0.551-0.485-0.682-0.826
			c-0.694-1.756-0.682-5.257-0.669-5.938c0-0.014,0-0.026,0-0.039c0.014-0.105,0.014-0.211,0.014-0.328
			c0.079-2.583,0.249-8.652,5.938-10.606c0.039-0.013,0.08-0.025,0.132-0.039c5.938-1.507,10.829-4.916,10.882-4.955
			c0.799-0.563,1.9-0.367,2.464,0.433s0.367,1.901-0.433,2.465c-0.223,0.144-5.439,3.789-11.969,5.467
			c-3.055,1.087-3.396,4.352-3.488,7.341c0,0.118-0.013,0.224-0.013,0.328c-0.026,1.18,0.065,3.002,0.276,4.051
			c2.136,1.206,10.514,5.388,23.125,5.388c0.031,0,0.062-0.002,0.094-0.002v-25.666c-0.015,0-0.029,0-0.042,0
			c-0.026,0-0.052,0-0.078,0c-0.079,0-0.145,0-0.21,0c-3.842-0.066-6.947-1.417-9.229-3.999c-5.048-5.689-4.209-15.443-4.117-16.374
			c0.328-7.04,3.684-10.383,6.437-11.942c2.74-1.561,5.599-1.797,7.054-1.797h0.078c0.014,0,0.039,0,0.053,0h0.055v-4.074
			l-12.434-0.021L641.835,305.786z"/>
		<path fill="#EF3C39" d="M693.378,332.453l-13.332-11.333v-15.333l-6.654-18.328l-12.434,0.021v4.074h0.055
			c0.014,0,0.039,0,0.053,0h0.078c1.455,0,4.313,0.236,7.054,1.797c2.753,1.56,6.108,4.902,6.437,11.942
			c0.092,0.931,0.931,10.685-4.117,16.374c-2.281,2.582-5.387,3.933-9.229,3.999c-0.065,0-0.131,0-0.21,0c-0.026,0-0.052,0-0.078,0
			c-0.013,0-0.027,0-0.042,0v25.666c0.032,0,0.063,0.002,0.094,0.002c12.611,0,20.989-4.182,23.125-5.388
			c0.211-1.049,0.303-2.871,0.276-4.051c0-0.104-0.013-0.21-0.013-0.328c-0.093-2.989-0.434-6.254-3.488-7.341
			c-6.529-1.678-11.746-5.323-11.969-5.467c-0.8-0.563-0.996-1.665-0.433-2.465s1.665-0.996,2.464-0.433
			c0.053,0.039,4.943,3.448,10.882,4.955c0.052,0.014,0.093,0.026,0.132,0.039c5.688,1.954,5.858,8.023,5.938,10.606
			c0,0.117,0,0.223,0.014,0.328c0,0.013,0,0.025,0,0.039c0.013,0.682,0.025,4.183-0.669,5.938c-0.131,0.341-0.366,0.63-0.682,0.826
			c-0.394,0.262-9.819,6.267-25.59,6.267c-0.027,0-0.054-0.002-0.081-0.002v4.016h25.086l4.668-3.089l5.814-5.32L693.378,332.453z"
			/>
	</g>
	<g>
		<path fill="#FFFFFF" d="M660.816,291.554h-0.078c-1.455,0-4.313,0.236-7.054,1.797c-2.753,1.56-6.108,4.902-6.437,11.942
			c-0.092,0.931-0.931,10.685,4.117,16.374c2.281,2.582,5.387,3.933,9.229,3.999c0.065,0,0.131,0,0.21,0c0.026,0,0.052,0,0.078,0
			c0.013,0,0.027,0,0.042,0v-3.543c-0.02,0-0.036,0.003-0.055,0.003c-0.026,0-0.039,0-0.065,0s-0.039,0-0.065,0
			c-2.885-0.026-5.1-0.944-6.738-2.806c-4.156-4.667-3.265-13.621-3.252-13.7c0-0.038,0.014-0.078,0.014-0.104
			c0.432-9.4,7.105-10.41,9.963-10.41h0.053c0.026,0,0.065,0,0.104,0c0.013,0,0.028,0.001,0.042,0.002v-3.555h-0.055
			C660.855,291.554,660.83,291.554,660.816,291.554z"/>
		<path fill="#FFFFFF" d="M674.634,305.293c-0.328-7.04-3.684-10.383-6.437-11.942c-2.74-1.561-5.599-1.797-7.054-1.797h-0.078
			c-0.014,0-0.039,0-0.053,0h-0.055v3.555c0.014,0,0.029-0.001,0.042-0.002c0.039,0,0.078,0,0.104,0h0.053
			c2.857,0,9.531,1.01,9.963,10.41c0,0.025,0.014,0.065,0.014,0.104c0.013,0.079,0.904,9.033-3.252,13.7
			c-1.639,1.861-3.854,2.779-6.738,2.806c-0.026,0-0.039,0-0.065,0s-0.039,0-0.065,0c-0.019,0-0.035-0.002-0.055-0.003v3.543
			c0.015,0,0.029,0,0.042,0c0.026,0,0.052,0,0.078,0c0.079,0,0.145,0,0.21,0c3.842-0.066,6.947-1.417,9.229-3.999
			C675.565,315.978,674.726,306.224,674.634,305.293z"/>
	</g>
	<g>
		<path fill="#FFFFFF" d="M637.705,345.946c-0.211-1.049-0.303-2.871-0.276-4.051c0-0.104,0.013-0.21,0.013-0.328
			c0.093-2.989,0.434-6.254,3.488-7.341c6.529-1.678,11.746-5.323,11.969-5.467c0.8-0.563,0.996-1.665,0.433-2.465
			s-1.665-0.996-2.464-0.433c-0.053,0.039-4.943,3.448-10.882,4.955c-0.052,0.014-0.093,0.026-0.132,0.039
			c-5.688,1.954-5.858,8.023-5.938,10.606c0,0.117,0,0.223-0.014,0.328c0,0.013,0,0.025,0,0.039
			c-0.013,0.682-0.025,4.183,0.669,5.938c0.131,0.341,0.366,0.63,0.682,0.826c0.394,0.262,9.819,6.267,25.59,6.267
			c0.027,0,0.054-0.002,0.081-0.002v-3.527c-0.032,0-0.063,0.002-0.094,0.002C648.218,351.334,639.84,347.152,637.705,345.946z"/>
		<path fill="#FFFFFF" d="M687.98,341.83c0-0.014,0-0.026,0-0.039c-0.014-0.105-0.014-0.211-0.014-0.328
			c-0.079-2.583-0.249-8.652-5.938-10.606c-0.039-0.013-0.08-0.025-0.132-0.039c-5.938-1.507-10.829-4.916-10.882-4.955
			c-0.799-0.563-1.9-0.367-2.464,0.433s-0.367,1.901,0.433,2.465c0.223,0.144,5.439,3.789,11.969,5.467
			c3.055,1.087,3.396,4.352,3.488,7.341c0,0.118,0.013,0.224,0.013,0.328c0.026,1.18-0.065,3.002-0.276,4.051
			c-2.136,1.206-10.514,5.388-23.125,5.388c-0.031,0-0.062-0.002-0.094-0.002v3.527c0.027,0,0.054,0.002,0.081,0.002
			c15.771,0,25.196-6.005,25.59-6.267c0.315-0.196,0.551-0.485,0.682-0.826C688.005,346.013,687.993,342.512,687.98,341.83z"/>
	</g>
</g>
<g>
	<path fill="#EF3C39" d="M122.156,105.851c-0.088,0-0.177,0-0.237,0h-0.12c-6.496,0-21.668,2.269-22.649,23.383
		c0,0.057-0.031,0.147-0.031,0.232c-0.029,0.178-2.056,20.29,7.393,30.772c3.726,4.181,8.761,6.243,15.318,6.302
		c0.061,0,0.089,0,0.149,0s0.089,0,0.148,0c0.042,0,0.08-0.006,0.125-0.007v-60.678
		C122.221,105.854,122.186,105.852,122.156,105.851z"/>
	<path fill="#EF3C39" d="M122.428,105.851c0.089,0,0.177,0,0.237,0h0.12c6.496,0,21.668,2.269,22.649,23.383
		c0,0.057,0.031,0.147,0.031,0.232c0.029,0.178,2.056,20.29-7.393,30.772c-3.725,4.181-8.76,6.243-15.318,6.302
		c-0.06,0-0.089,0-0.149,0s-0.088,0-0.148,0c-0.042,0-0.08-0.006-0.125-0.007v-60.678
		C122.363,105.854,122.399,105.852,122.428,105.851z"/>
	<g>
		<path fill="#EF3C39" d="M78.858,129.838v34.441L48.55,189.735l-7.158,40.458l13.218,11.95l10.612,6.939h57.029v-9.02
			c-0.062,0-0.122,0.005-0.184,0.005c-35.852,0-57.28-13.488-58.175-14.075c-0.717-0.441-1.252-1.091-1.55-1.856
			c-1.578-3.944-1.549-11.808-1.521-13.339c0-0.031,0-0.059,0-0.088c0.031-0.237,0.031-0.474,0.031-0.737
			c0.18-5.802,0.566-19.434,13.498-23.823c0.089-0.028,0.183-0.057,0.3-0.087c13.5-3.385,24.619-11.042,24.739-11.13
			c1.816-1.265,4.32-0.824,5.601,0.972c1.281,1.796,0.835,4.271-0.983,5.536c-0.506,0.323-12.366,8.511-27.209,12.28
			c-6.945,2.44-7.719,9.773-7.93,16.488c0,0.265-0.028,0.502-0.028,0.737c-0.061,2.65,0.148,6.743,0.628,9.099
			c4.855,2.709,23.901,12.102,52.571,12.102c0.071,0,0.14-0.004,0.213-0.004v-57.649c-0.033,0-0.066,0-0.096,0
			c-0.06,0-0.117,0-0.177,0c-0.18,0-0.328,0-0.478,0c-8.733-0.149-15.793-3.183-20.979-8.982
			c-11.476-12.779-9.569-34.687-9.36-36.778c0.746-15.813,8.374-23.321,14.632-26.824c6.229-3.505,12.728-4.036,16.035-4.036h0.178
			c0.031,0,0.088,0,0.119,0h0.125V88.72l-28.266-0.048L78.858,129.838z"/>
		<path fill="#EF3C39" d="M196.034,189.735l-30.308-25.457v-34.441l-15.128-41.166l-28.266,0.048v9.152h0.125
			c0.031,0,0.088,0,0.12,0h0.178c3.308,0,9.806,0.531,16.036,4.036c6.259,3.502,13.886,11.011,14.632,26.824
			c0.209,2.091,2.116,23.999-9.36,36.778c-5.186,5.8-12.246,8.833-20.979,8.982c-0.149,0-0.297,0-0.478,0c-0.06,0-0.118,0-0.177,0
			c-0.029,0-0.063,0-0.096,0v57.649c0.073,0,0.143,0.004,0.213,0.004c28.67,0,47.716-9.393,52.572-12.102
			c0.479-2.355,0.688-6.448,0.628-9.099c0-0.235-0.029-0.472-0.029-0.737c-0.21-6.714-0.985-14.047-7.93-16.488
			c-14.844-3.769-26.703-11.957-27.209-12.28c-1.818-1.266-2.264-3.74-0.983-5.536s3.785-2.237,5.601-0.972
			c0.12,0.088,11.238,7.746,24.738,11.13c0.118,0.031,0.211,0.059,0.3,0.087c12.932,4.389,13.318,18.021,13.498,23.823
			c0,0.263,0,0.5,0.031,0.737c0,0.029,0,0.057,0,0.088c0.029,1.531,0.058,9.395-1.521,13.339c-0.297,0.765-0.833,1.415-1.55,1.856
			c-0.895,0.587-22.323,14.075-58.175,14.075c-0.063,0-0.122-0.005-0.185-0.005v9.02h57.029l10.612-6.939l13.219-11.95
			L196.034,189.735z"/>
	</g>
	<g>
		<path fill="#FFFFFF" d="M122.008,97.872h-0.178c-3.308,0-9.806,0.531-16.035,4.036c-6.259,3.502-13.887,11.011-14.632,26.824
			c-0.209,2.091-2.116,23.999,9.36,36.778c5.186,5.8,12.246,8.833,20.979,8.982c0.149,0,0.298,0,0.478,0c0.06,0,0.117,0,0.177,0
			c0.029,0,0.063,0,0.096,0v-7.958c-0.044,0.001-0.082,0.007-0.125,0.007c-0.06,0-0.088,0-0.148,0s-0.088,0-0.149,0
			c-6.558-0.059-11.593-2.122-15.318-6.302c-9.449-10.483-7.421-30.595-7.393-30.772c0-0.085,0.031-0.175,0.031-0.232
			c0.981-21.114,16.153-23.383,22.649-23.383h0.12c0.06,0,0.149,0,0.237,0c0.029,0.001,0.065,0.003,0.096,0.005v-7.984h-0.125
			C122.096,97.872,122.039,97.872,122.008,97.872z"/>
		<path fill="#FFFFFF" d="M153.422,128.731c-0.746-15.813-8.374-23.321-14.632-26.824c-6.229-3.505-12.728-4.036-16.036-4.036
			h-0.178c-0.031,0-0.089,0-0.12,0h-0.125v7.984c0.031-0.002,0.067-0.004,0.096-0.005c0.089,0,0.177,0,0.237,0h0.12
			c6.496,0,21.668,2.269,22.649,23.383c0,0.057,0.031,0.147,0.031,0.232c0.029,0.178,2.056,20.29-7.393,30.772
			c-3.725,4.181-8.76,6.243-15.318,6.302c-0.06,0-0.089,0-0.149,0s-0.088,0-0.148,0c-0.042,0-0.08-0.006-0.125-0.007v7.958
			c0.033,0,0.067,0,0.096,0c0.06,0,0.117,0,0.177,0c0.18,0,0.329,0,0.478,0c8.733-0.149,15.793-3.183,20.979-8.982
			C155.538,152.73,153.631,130.822,153.422,128.731z"/>
	</g>
	<g>
		<path fill="#FFFFFF" d="M69.468,220.043c-0.48-2.355-0.688-6.448-0.628-9.099c0-0.235,0.028-0.472,0.028-0.737
			c0.211-6.714,0.985-14.047,7.93-16.488c14.843-3.769,26.703-11.957,27.209-12.28c1.818-1.266,2.264-3.74,0.983-5.536
			c-1.281-1.796-3.785-2.237-5.601-0.972c-0.12,0.088-11.238,7.746-24.739,11.13c-0.117,0.031-0.21,0.059-0.3,0.087
			c-12.932,4.389-13.318,18.021-13.498,23.823c0,0.263,0,0.5-0.031,0.737c0,0.029,0,0.057,0,0.088
			c-0.029,1.531-0.058,9.395,1.521,13.339c0.297,0.765,0.833,1.415,1.55,1.856c0.895,0.587,22.323,14.075,58.175,14.075
			c0.063,0,0.122-0.005,0.184-0.005v-7.922c-0.073,0-0.142,0.004-0.213,0.004C93.369,232.145,74.323,222.752,69.468,220.043z"/>
		<path fill="#FFFFFF" d="M183.762,210.798c0-0.031,0-0.059,0-0.088c-0.031-0.237-0.031-0.474-0.031-0.737
			c-0.18-5.802-0.566-19.434-13.498-23.823c-0.089-0.028-0.183-0.057-0.3-0.087c-13.5-3.385-24.618-11.042-24.738-11.13
			c-1.816-1.265-4.32-0.824-5.601,0.972s-0.835,4.271,0.983,5.536c0.506,0.323,12.366,8.511,27.209,12.28
			c6.944,2.44,7.719,9.773,7.93,16.488c0,0.265,0.029,0.502,0.029,0.737c0.06,2.65-0.148,6.743-0.628,9.099
			c-4.855,2.709-23.902,12.102-52.572,12.102c-0.07,0-0.14-0.004-0.213-0.004v7.922c0.063,0,0.122,0.005,0.185,0.005
			c35.852,0,57.28-13.488,58.175-14.075c0.717-0.441,1.252-1.091,1.55-1.856C183.819,220.193,183.791,212.329,183.762,210.798z"/>
	</g>
</g>
<g>
	<path fill="#EF3C39" d="M607.049,17.19c-0.039,0-0.078,0-0.104,0h-0.053c-2.857,0-9.531,1.01-9.963,10.41
		c0,0.025-0.014,0.065-0.014,0.104c-0.013,0.079-0.904,9.033,3.252,13.7c1.639,1.861,3.854,2.779,6.738,2.806
		c0.026,0,0.039,0,0.065,0s0.039,0,0.065,0c0.019,0,0.035-0.002,0.055-0.003V17.192C607.078,17.192,607.062,17.191,607.049,17.19z"
		/>
	<path fill="#EF3C39" d="M607.168,17.19c0.039,0,0.078,0,0.104,0h0.053c2.857,0,9.531,1.01,9.963,10.41
		c0,0.025,0.014,0.065,0.014,0.104c0.013,0.079,0.904,9.033-3.252,13.7c-1.639,1.861-3.854,2.779-6.738,2.806
		c-0.026,0-0.039,0-0.065,0s-0.039,0-0.065,0c-0.019,0-0.035-0.002-0.055-0.003V17.192C607.14,17.192,607.156,17.191,607.168,17.19z
		"/>
	<g>
		<path fill="#EF3C39" d="M588.003,27.87v15.333l-13.332,11.333l-3.148,18.013l5.814,5.32l4.668,3.089h25.086v-4.016
			c-0.027,0-0.054,0.002-0.081,0.002c-15.771,0-25.196-6.005-25.59-6.267c-0.315-0.196-0.551-0.485-0.682-0.826
			c-0.694-1.756-0.682-5.257-0.669-5.938c0-0.014,0-0.026,0-0.039c0.014-0.105,0.014-0.211,0.014-0.328
			c0.079-2.583,0.249-8.652,5.938-10.606c0.039-0.013,0.08-0.025,0.132-0.039c5.938-1.507,10.829-4.916,10.882-4.955
			c0.799-0.563,1.9-0.367,2.464,0.433s0.367,1.901-0.433,2.465c-0.223,0.144-5.439,3.789-11.969,5.467
			c-3.055,1.087-3.396,4.352-3.488,7.341c0,0.118-0.013,0.224-0.013,0.328c-0.026,1.18,0.065,3.002,0.276,4.051
			c2.136,1.206,10.514,5.388,23.125,5.388c0.031,0,0.062-0.002,0.094-0.002V47.75c-0.015,0-0.029,0-0.042,0
			c-0.026,0-0.052,0-0.078,0c-0.079,0-0.145,0-0.21,0c-3.842-0.066-6.947-1.417-9.229-3.999c-5.048-5.689-4.209-15.443-4.117-16.374
			c0.328-7.04,3.684-10.383,6.437-11.942c2.74-1.561,5.599-1.797,7.054-1.797h0.078c0.014,0,0.039,0,0.053,0h0.055V9.563
			l-12.434-0.021L588.003,27.87z"/>
		<path fill="#EF3C39" d="M639.546,54.537l-13.332-11.333V27.87L619.56,9.542l-12.434,0.021v4.074h0.055c0.014,0,0.039,0,0.053,0
			h0.078c1.455,0,4.313,0.236,7.054,1.797c2.753,1.56,6.108,4.902,6.437,11.942c0.092,0.931,0.931,10.685-4.117,16.374
			c-2.281,2.582-5.387,3.933-9.229,3.999c-0.065,0-0.131,0-0.21,0c-0.026,0-0.052,0-0.078,0c-0.013,0-0.027,0-0.042,0v25.666
			c0.032,0,0.063,0.002,0.094,0.002c12.611,0,20.989-4.182,23.125-5.388c0.211-1.049,0.303-2.871,0.276-4.051
			c0-0.104-0.013-0.21-0.013-0.328c-0.093-2.989-0.434-6.254-3.488-7.341c-6.529-1.678-11.746-5.323-11.969-5.467
			c-0.8-0.563-0.996-1.665-0.433-2.465s1.665-0.996,2.464-0.433c0.053,0.039,4.943,3.448,10.882,4.955
			c0.052,0.014,0.093,0.026,0.132,0.039c5.688,1.954,5.858,8.023,5.938,10.606c0,0.117,0,0.223,0.014,0.328c0,0.013,0,0.025,0,0.039
			c0.013,0.682,0.025,4.183-0.669,5.938c-0.131,0.341-0.366,0.63-0.682,0.826c-0.394,0.262-9.819,6.267-25.59,6.267
			c-0.027,0-0.054-0.002-0.081-0.002v4.016h25.086l4.668-3.089l5.814-5.32L639.546,54.537z"/>
	</g>
	<g>
		<path fill="#FFFFFF" d="M606.984,13.638h-0.078c-1.455,0-4.313,0.236-7.054,1.797c-2.753,1.56-6.108,4.902-6.437,11.942
			c-0.092,0.931-0.931,10.685,4.117,16.374c2.281,2.582,5.387,3.933,9.229,3.999c0.065,0,0.131,0,0.21,0c0.026,0,0.052,0,0.078,0
			c0.013,0,0.027,0,0.042,0v-3.543c-0.02,0-0.036,0.003-0.055,0.003c-0.026,0-0.039,0-0.065,0s-0.039,0-0.065,0
			c-2.885-0.026-5.1-0.944-6.738-2.806c-4.156-4.667-3.265-13.621-3.252-13.7c0-0.038,0.014-0.078,0.014-0.104
			c0.432-9.4,7.105-10.41,9.963-10.41h0.053c0.026,0,0.065,0,0.104,0c0.013,0,0.028,0.001,0.042,0.002v-3.555h-0.055
			C607.023,13.638,606.998,13.638,606.984,13.638z"/>
		<path fill="#FFFFFF" d="M620.802,27.377c-0.328-7.04-3.684-10.383-6.437-11.942c-2.74-1.561-5.599-1.797-7.054-1.797h-0.078
			c-0.014,0-0.039,0-0.053,0h-0.055v3.555c0.014,0,0.029-0.001,0.042-0.002c0.039,0,0.078,0,0.104,0h0.053
			c2.857,0,9.531,1.01,9.963,10.41c0,0.025,0.014,0.065,0.014,0.104c0.013,0.079,0.904,9.033-3.252,13.7
			c-1.639,1.861-3.854,2.779-6.738,2.806c-0.026,0-0.039,0-0.065,0s-0.039,0-0.065,0c-0.019,0-0.035-0.002-0.055-0.003v3.543
			c0.015,0,0.029,0,0.042,0c0.026,0,0.052,0,0.078,0c0.079,0,0.145,0,0.21,0c3.842-0.066,6.947-1.417,9.229-3.999
			C621.733,38.062,620.894,28.308,620.802,27.377z"/>
	</g>
	<g>
		<path fill="#FFFFFF" d="M583.873,68.03c-0.211-1.049-0.303-2.871-0.276-4.051c0-0.104,0.013-0.21,0.013-0.328
			c0.093-2.989,0.434-6.254,3.488-7.341c6.529-1.678,11.746-5.323,11.969-5.467c0.8-0.563,0.996-1.665,0.433-2.465
			s-1.665-0.996-2.464-0.433c-0.053,0.039-4.943,3.448-10.882,4.955c-0.052,0.014-0.093,0.026-0.132,0.039
			c-5.688,1.954-5.858,8.023-5.938,10.606c0,0.117,0,0.223-0.014,0.328c0,0.013,0,0.025,0,0.039
			c-0.013,0.682-0.025,4.183,0.669,5.938c0.131,0.341,0.366,0.63,0.682,0.826c0.394,0.262,9.819,6.267,25.59,6.267
			c0.027,0,0.054-0.002,0.081-0.002v-3.527c-0.032,0-0.063,0.002-0.094,0.002C594.386,73.418,586.008,69.236,583.873,68.03z"/>
		<path fill="#FFFFFF" d="M634.148,63.914c0-0.014,0-0.026,0-0.039c-0.014-0.105-0.014-0.211-0.014-0.328
			c-0.079-2.583-0.249-8.652-5.938-10.606c-0.039-0.013-0.08-0.025-0.132-0.039c-5.938-1.507-10.829-4.916-10.882-4.955
			c-0.799-0.563-1.9-0.367-2.464,0.433s-0.367,1.901,0.433,2.465c0.223,0.144,5.439,3.789,11.969,5.467
			c3.055,1.087,3.396,4.352,3.488,7.341c0,0.118,0.013,0.224,0.013,0.328c0.026,1.18-0.065,3.002-0.276,4.051
			c-2.136,1.206-10.514,5.388-23.125,5.388c-0.031,0-0.062-0.002-0.094-0.002v3.527c0.027,0,0.054,0.002,0.081,0.002
			c15.771,0,25.196-6.005,25.59-6.267c0.315-0.196,0.551-0.485,0.682-0.826C634.173,68.097,634.161,64.596,634.148,63.914z"/>
	</g>
</g>
<g>
	<path fill="#EF3C39" d="M790.882,56.44c-0.039,0-0.078,0-0.104,0h-0.053c-2.857,0-9.531,1.01-9.963,10.41
		c0,0.025-0.014,0.065-0.014,0.104c-0.013,0.079-0.904,9.033,3.252,13.7c1.639,1.861,3.854,2.779,6.738,2.806
		c0.026,0,0.039,0,0.065,0s0.039,0,0.065,0c0.019,0,0.035-0.002,0.055-0.003V56.442C790.91,56.441,790.895,56.44,790.882,56.44z"/>
	<path fill="#EF3C39" d="M791.001,56.44c0.039,0,0.078,0,0.104,0h0.053c2.857,0,9.531,1.01,9.963,10.41
		c0,0.025,0.014,0.065,0.014,0.104c0.013,0.079,0.904,9.033-3.252,13.7c-1.639,1.861-3.854,2.779-6.738,2.806
		c-0.026,0-0.039,0-0.065,0s-0.039,0-0.065,0c-0.019,0-0.035-0.002-0.055-0.003V56.442C790.973,56.441,790.988,56.44,791.001,56.44z
		"/>
	<g>
		<path fill="#EF3C39" d="M771.836,67.119v15.333l-13.332,11.333l-3.148,18.013l5.814,5.32l4.668,3.089h25.086v-4.016
			c-0.027,0-0.054,0.002-0.081,0.002c-15.771,0-25.196-6.005-25.59-6.267c-0.315-0.196-0.551-0.485-0.682-0.826
			c-0.694-1.756-0.682-5.257-0.669-5.938c0-0.014,0-0.026,0-0.039c0.014-0.105,0.014-0.211,0.014-0.328
			c0.079-2.583,0.249-8.652,5.938-10.606c0.039-0.013,0.08-0.025,0.132-0.039c5.938-1.507,10.829-4.916,10.882-4.955
			c0.799-0.563,1.9-0.367,2.464,0.433s0.367,1.901-0.433,2.465c-0.223,0.144-5.439,3.789-11.969,5.467
			c-3.055,1.087-3.396,4.352-3.488,7.341c0,0.118-0.013,0.224-0.013,0.328c-0.026,1.18,0.065,3.002,0.276,4.051
			c2.136,1.206,10.514,5.388,23.125,5.388c0.031,0,0.062-0.002,0.094-0.002V87c-0.015,0-0.029,0-0.042,0c-0.026,0-0.052,0-0.078,0
			c-0.079,0-0.145,0-0.21,0c-3.842-0.066-6.947-1.417-9.229-3.999c-5.048-5.689-4.209-15.443-4.117-16.374
			c0.328-7.04,3.684-10.383,6.437-11.942c2.74-1.561,5.599-1.797,7.054-1.797h0.078c0.014,0,0.039,0,0.053,0h0.055v-4.074
			l-12.434-0.021L771.836,67.119z"/>
		<path fill="#EF3C39" d="M823.379,93.786l-13.332-11.333V67.119l-6.654-18.328l-12.434,0.021v4.074h0.055c0.014,0,0.039,0,0.053,0
			h0.078c1.455,0,4.313,0.236,7.054,1.797c2.753,1.56,6.108,4.902,6.437,11.942c0.092,0.931,0.931,10.685-4.117,16.374
			c-2.281,2.582-5.387,3.933-9.229,3.999c-0.065,0-0.131,0-0.21,0c-0.026,0-0.052,0-0.078,0c-0.013,0-0.027,0-0.042,0v25.666
			c0.032,0,0.063,0.002,0.094,0.002c12.611,0,20.989-4.182,23.125-5.388c0.211-1.049,0.303-2.871,0.276-4.051
			c0-0.104-0.013-0.21-0.013-0.328c-0.093-2.989-0.434-6.254-3.488-7.341c-6.529-1.678-11.746-5.323-11.969-5.467
			c-0.8-0.563-0.996-1.665-0.433-2.465s1.665-0.996,2.464-0.433c0.053,0.039,4.943,3.448,10.882,4.955
			c0.052,0.014,0.093,0.026,0.132,0.039c5.688,1.954,5.858,8.023,5.938,10.606c0,0.117,0,0.223,0.014,0.328c0,0.013,0,0.025,0,0.039
			c0.013,0.682,0.025,4.183-0.669,5.938c-0.131,0.341-0.366,0.63-0.682,0.826c-0.394,0.262-9.819,6.267-25.59,6.267
			c-0.027,0-0.054-0.002-0.081-0.002v4.016h25.086l4.668-3.089l5.814-5.32L823.379,93.786z"/>
	</g>
	<g>
		<path fill="#FFFFFF" d="M790.816,52.887h-0.078c-1.455,0-4.313,0.236-7.054,1.797c-2.753,1.56-6.108,4.902-6.437,11.942
			c-0.092,0.931-0.931,10.685,4.117,16.374c2.281,2.582,5.387,3.933,9.229,3.999c0.065,0,0.131,0,0.21,0c0.026,0,0.052,0,0.078,0
			c0.013,0,0.027,0,0.042,0v-3.543c-0.02,0-0.036,0.003-0.055,0.003c-0.026,0-0.039,0-0.065,0s-0.039,0-0.065,0
			c-2.885-0.026-5.1-0.944-6.738-2.806c-4.156-4.667-3.265-13.621-3.252-13.7c0-0.038,0.014-0.078,0.014-0.104
			c0.432-9.4,7.105-10.41,9.963-10.41h0.053c0.026,0,0.065,0,0.104,0c0.013,0,0.028,0.001,0.042,0.002v-3.555h-0.055
			C790.855,52.887,790.83,52.887,790.816,52.887z"/>
		<path fill="#FFFFFF" d="M804.635,66.626c-0.328-7.04-3.684-10.383-6.437-11.942c-2.74-1.561-5.599-1.797-7.054-1.797h-0.078
			c-0.014,0-0.039,0-0.053,0h-0.055v3.555c0.014,0,0.029-0.001,0.042-0.002c0.039,0,0.078,0,0.104,0h0.053
			c2.857,0,9.531,1.01,9.963,10.41c0,0.025,0.014,0.065,0.014,0.104c0.013,0.079,0.904,9.033-3.252,13.7
			c-1.639,1.861-3.854,2.779-6.738,2.806c-0.026,0-0.039,0-0.065,0s-0.039,0-0.065,0c-0.019,0-0.035-0.002-0.055-0.003V87
			c0.015,0,0.029,0,0.042,0c0.026,0,0.052,0,0.078,0c0.079,0,0.145,0,0.21,0c3.842-0.066,6.947-1.417,9.229-3.999
			C805.565,77.311,804.727,67.557,804.635,66.626z"/>
	</g>
	<g>
		<path fill="#FFFFFF" d="M767.705,107.28c-0.211-1.049-0.303-2.871-0.276-4.051c0-0.104,0.013-0.21,0.013-0.328
			c0.093-2.989,0.434-6.254,3.488-7.341c6.529-1.678,11.746-5.323,11.969-5.467c0.8-0.563,0.996-1.665,0.433-2.465
			s-1.665-0.996-2.464-0.433c-0.053,0.039-4.943,3.448-10.882,4.955c-0.052,0.014-0.093,0.026-0.132,0.039
			c-5.688,1.954-5.858,8.023-5.938,10.606c0,0.117,0,0.223-0.014,0.328c0,0.013,0,0.025,0,0.039
			c-0.013,0.682-0.025,4.183,0.669,5.938c0.131,0.341,0.366,0.63,0.682,0.826c0.394,0.262,9.819,6.267,25.59,6.267
			c0.027,0,0.054-0.002,0.081-0.002v-3.527c-0.032,0-0.063,0.002-0.094,0.002C778.219,112.667,769.841,108.486,767.705,107.28z"/>
		<path fill="#FFFFFF" d="M817.98,103.164c0-0.014,0-0.026,0-0.039c-0.014-0.105-0.014-0.211-0.014-0.328
			c-0.079-2.583-0.249-8.652-5.938-10.606c-0.039-0.013-0.08-0.025-0.132-0.039c-5.938-1.507-10.829-4.916-10.882-4.955
			c-0.799-0.563-1.9-0.367-2.464,0.433s-0.367,1.901,0.433,2.465c0.223,0.144,5.439,3.789,11.969,5.467
			c3.055,1.087,3.396,4.352,3.488,7.341c0,0.118,0.013,0.224,0.013,0.328c0.026,1.18-0.065,3.002-0.276,4.051
			c-2.136,1.206-10.514,5.388-23.125,5.388c-0.031,0-0.062-0.002-0.094-0.002v3.527c0.027,0,0.054,0.002,0.081,0.002
			c15.771,0,25.196-6.005,25.59-6.267c0.315-0.196,0.551-0.485,0.682-0.826C818.006,107.346,817.993,103.845,817.98,103.164z"/>
	</g>
</g>
<g>
	<g>
		
			<line fill="none" stroke="#FFFFFF" stroke-width="7" stroke-miterlimit="10" x1="249.065" y1="178.835" x2="347.918" y2="178.835"/>
		<g>
			<polygon fill="#FFFFFF" points="341.791,199.777 378.059,178.835 341.791,157.893 			"/>
		</g>
	</g>
</g>
</svg>
