<?xml version="1.0" encoding="utf-8"?>
<!-- Generator: Adobe Illustrator 16.0.3, SVG Export Plug-In . SVG Version: 6.00 Build 0)  -->
<!DOCTYPE svg PUBLIC "-//W3C//DTD SVG 1.1//EN" "http://www.w3.org/Graphics/SVG/1.1/DTD/svg11.dtd">
<svg version="1.1" id="Layer_1" xmlns="http://www.w3.org/2000/svg" xmlns:xlink="http://www.w3.org/1999/xlink" x="0px" y="0px"
	 width="486px" height="367.667px" viewBox="0 0 486 367.667" enable-background="new 0 0 486 367.667" xml:space="preserve">
<rect fill="#EF3B39" width="486" height="367.667"/>
<rect x="1367.655" y="109.881" fill="none" width="98.934" height="259.847"/>
<g>
	<g>
		<defs>
			<rect id="SVGID_1_" x="145.06" y="83.028" width="210.632" height="210.631"/>
		</defs>
		<clipPath id="SVGID_2_">
			<use xlink:href="#SVGID_1_"  overflow="visible"/>
		</clipPath>
		<rect x="145.06" y="83.028" clip-path="url(#SVGID_2_)" fill="#EF3B39" width="210.632" height="210.631"/>
		<polygon clip-path="url(#SVGID_2_)" fill="#FFFFFF" points="235.949,224.724 217.24,224.724 217.24,151.964 235.949,151.964 
			235.949,180.548 245.304,180.548 261.519,151.964 281.268,151.964 260.895,187.825 281.164,224.724 261.415,224.724 
			245.304,195.1 235.949,195.1 		"/>
		<path clip-path="url(#SVGID_2_)" fill="#FFFFFF" d="M277.521,117.904H259.56h-81.923v140.879h81.923h17.961h40.996V117.904
			H277.521z M300.186,241.695h-22.665H259.56h-61.727V134.993h61.727h17.961h22.665V241.695z"/>
	</g>
</g>
<ellipse fill="none" stroke="#FFFFFF" stroke-width="4" stroke-miterlimit="10" cx="250.376" cy="190" rx="207.667" ry="133.667"/>
<g>
	<path fill="#EF3C39" d="M437.923,208.44c-0.039,0-0.078,0-0.104,0h-0.053c-2.857,0-9.531,1.01-9.963,10.41
		c0,0.025-0.014,0.065-0.014,0.104c-0.013,0.079-0.904,9.033,3.252,13.7c1.639,1.861,3.854,2.779,6.738,2.806
		c0.026,0,0.039,0,0.065,0s0.039,0,0.065,0c0.019,0,0.035-0.002,0.055-0.003v-27.015
		C437.951,208.442,437.936,208.441,437.923,208.44z"/>
	<path fill="#EF3C39" d="M438.042,208.44c0.039,0,0.078,0,0.104,0h0.053c2.857,0,9.531,1.01,9.963,10.41
		c0,0.025,0.014,0.065,0.014,0.104c0.013,0.079,0.904,9.033-3.252,13.7c-1.639,1.861-3.854,2.779-6.738,2.806
		c-0.026,0-0.039,0-0.065,0s-0.039,0-0.065,0c-0.019,0-0.035-0.002-0.055-0.003v-27.015
		C438.014,208.442,438.029,208.441,438.042,208.44z"/>
	<g>
		<path fill="#EF3C39" d="M418.877,219.12v15.333l-13.332,11.333l-3.148,18.013l5.814,5.32l4.668,3.089h25.086v-4.016
			c-0.027,0-0.054,0.002-0.081,0.002c-15.771,0-25.196-6.005-25.59-6.267c-0.315-0.196-0.551-0.485-0.682-0.826
			c-0.694-1.756-0.682-5.257-0.669-5.938c0-0.014,0-0.026,0-0.039c0.014-0.105,0.014-0.211,0.014-0.328
			c0.079-2.583,0.249-8.652,5.938-10.606c0.039-0.013,0.08-0.025,0.132-0.039c5.938-1.507,10.829-4.916,10.882-4.955
			c0.799-0.563,1.9-0.367,2.464,0.433s0.367,1.901-0.433,2.465c-0.223,0.144-5.439,3.789-11.969,5.467
			c-3.055,1.087-3.396,4.352-3.488,7.341c0,0.118-0.013,0.224-0.013,0.328c-0.026,1.18,0.065,3.002,0.276,4.051
			c2.136,1.206,10.514,5.388,23.125,5.388c0.031,0,0.062-0.002,0.094-0.002V239c-0.015,0-0.029,0-0.042,0c-0.026,0-0.052,0-0.078,0
			c-0.079,0-0.145,0-0.21,0c-3.842-0.066-6.947-1.417-9.229-3.999c-5.048-5.689-4.209-15.443-4.117-16.374
			c0.328-7.04,3.684-10.383,6.437-11.942c2.74-1.561,5.599-1.797,7.054-1.797h0.078c0.014,0,0.039,0,0.053,0h0.055v-4.074
			l-12.434-0.021L418.877,219.12z"/>
		<path fill="#EF3C39" d="M470.42,245.787l-13.332-11.333V219.12l-6.654-18.328L438,200.813v4.074h0.055c0.014,0,0.039,0,0.053,0
			h0.078c1.455,0,4.313,0.236,7.054,1.797c2.753,1.56,6.108,4.902,6.437,11.942c0.092,0.931,0.931,10.685-4.117,16.374
			c-2.281,2.582-5.387,3.933-9.229,3.999c-0.065,0-0.131,0-0.21,0c-0.026,0-0.052,0-0.078,0c-0.013,0-0.027,0-0.042,0v25.666
			c0.032,0,0.063,0.002,0.094,0.002c12.611,0,20.989-4.182,23.125-5.388c0.211-1.049,0.303-2.871,0.276-4.051
			c0-0.104-0.013-0.21-0.013-0.328c-0.093-2.989-0.434-6.254-3.488-7.341c-6.529-1.678-11.746-5.323-11.969-5.467
			c-0.8-0.563-0.996-1.665-0.433-2.465s1.665-0.996,2.464-0.433c0.053,0.039,4.943,3.448,10.882,4.955
			c0.052,0.014,0.093,0.026,0.132,0.039c5.688,1.954,5.858,8.023,5.938,10.606c0,0.117,0,0.223,0.014,0.328c0,0.013,0,0.025,0,0.039
			c0.013,0.682,0.025,4.183-0.669,5.938c-0.131,0.341-0.366,0.63-0.682,0.826c-0.394,0.262-9.819,6.267-25.59,6.267
			c-0.027,0-0.054-0.002-0.081-0.002v4.016h25.086l4.668-3.089l5.814-5.32L470.42,245.787z"/>
	</g>
	<g>
		<path fill="#FFFFFF" d="M437.857,204.888h-0.078c-1.455,0-4.313,0.236-7.054,1.797c-2.753,1.56-6.108,4.902-6.437,11.942
			c-0.092,0.931-0.931,10.685,4.117,16.374c2.281,2.582,5.387,3.933,9.229,3.999c0.065,0,0.131,0,0.21,0c0.026,0,0.052,0,0.078,0
			c0.013,0,0.027,0,0.042,0v-3.543c-0.02,0-0.036,0.003-0.055,0.003c-0.026,0-0.039,0-0.065,0s-0.039,0-0.065,0
			c-2.885-0.026-5.1-0.944-6.738-2.806c-4.156-4.667-3.265-13.621-3.252-13.7c0-0.038,0.014-0.078,0.014-0.104
			c0.432-9.4,7.105-10.41,9.963-10.41h0.053c0.026,0,0.065,0,0.104,0c0.013,0,0.028,0.001,0.042,0.002v-3.555h-0.055
			C437.896,204.888,437.871,204.888,437.857,204.888z"/>
		<path fill="#FFFFFF" d="M451.676,218.627c-0.328-7.04-3.684-10.383-6.437-11.942c-2.74-1.561-5.599-1.797-7.054-1.797h-0.078
			c-0.014,0-0.039,0-0.053,0H438v3.555c0.014,0,0.029-0.001,0.042-0.002c0.039,0,0.078,0,0.104,0h0.053
			c2.857,0,9.531,1.01,9.963,10.41c0,0.025,0.014,0.065,0.014,0.104c0.013,0.079,0.904,9.033-3.252,13.7
			c-1.639,1.861-3.854,2.779-6.738,2.806c-0.026,0-0.039,0-0.065,0s-0.039,0-0.065,0c-0.019,0-0.035-0.002-0.055-0.003V239
			c0.015,0,0.029,0,0.042,0c0.026,0,0.052,0,0.078,0c0.079,0,0.145,0,0.21,0c3.842-0.066,6.947-1.417,9.229-3.999
			C452.606,229.312,451.768,219.558,451.676,218.627z"/>
	</g>
	<g>
		<path fill="#FFFFFF" d="M414.746,259.28c-0.211-1.049-0.303-2.871-0.276-4.051c0-0.104,0.013-0.21,0.013-0.328
			c0.093-2.989,0.434-6.254,3.488-7.341c6.529-1.678,11.746-5.323,11.969-5.467c0.8-0.563,0.996-1.665,0.433-2.465
			s-1.665-0.996-2.464-0.433c-0.053,0.039-4.943,3.448-10.882,4.955c-0.052,0.014-0.093,0.026-0.132,0.039
			c-5.688,1.954-5.858,8.023-5.938,10.606c0,0.117,0,0.223-0.014,0.328c0,0.013,0,0.025,0,0.039
			c-0.013,0.682-0.025,4.183,0.669,5.938c0.131,0.341,0.366,0.63,0.682,0.826c0.394,0.262,9.819,6.267,25.59,6.267
			c0.027,0,0.054-0.002,0.081-0.002v-3.527c-0.032,0-0.063,0.002-0.094,0.002C425.26,264.668,416.882,260.486,414.746,259.28z"/>
		<path fill="#FFFFFF" d="M465.021,255.164c0-0.014,0-0.026,0-0.039c-0.014-0.105-0.014-0.211-0.014-0.328
			c-0.079-2.583-0.249-8.652-5.938-10.606c-0.039-0.013-0.08-0.025-0.132-0.039c-5.938-1.507-10.829-4.916-10.882-4.955
			c-0.799-0.563-1.9-0.367-2.464,0.433s-0.367,1.901,0.433,2.465c0.223,0.144,5.439,3.789,11.969,5.467
			c3.055,1.087,3.396,4.352,3.488,7.341c0,0.118,0.013,0.224,0.013,0.328c0.026,1.18-0.065,3.002-0.276,4.051
			c-2.136,1.206-10.514,5.388-23.125,5.388c-0.031,0-0.062-0.002-0.094-0.002v3.527c0.027,0,0.054,0.002,0.081,0.002
			c15.771,0,25.196-6.005,25.59-6.267c0.315-0.196,0.551-0.485,0.682-0.826C465.047,259.347,465.034,255.846,465.021,255.164z"/>
	</g>
</g>
<g>
	<path fill="#EF3C39" d="M249.851,295.106c-0.039,0-0.078,0-0.104,0h-0.053c-2.857,0-9.531,1.01-9.963,10.41
		c0,0.025-0.014,0.065-0.014,0.104c-0.013,0.079-0.904,9.033,3.252,13.7c1.639,1.861,3.854,2.779,6.738,2.806
		c0.026,0,0.039,0,0.065,0s0.039,0,0.065,0c0.019,0,0.035-0.002,0.055-0.003v-27.015
		C249.879,295.108,249.863,295.107,249.851,295.106z"/>
	<path fill="#EF3C39" d="M249.97,295.106c0.039,0,0.078,0,0.104,0h0.053c2.857,0,9.531,1.01,9.963,10.41
		c0,0.025,0.014,0.065,0.014,0.104c0.013,0.079,0.904,9.033-3.252,13.7c-1.639,1.861-3.854,2.779-6.738,2.806
		c-0.026,0-0.039,0-0.065,0s-0.039,0-0.065,0c-0.019,0-0.035-0.002-0.055-0.003v-27.015
		C249.941,295.108,249.957,295.107,249.97,295.106z"/>
	<g>
		<path fill="#EF3C39" d="M230.805,305.786v15.333l-13.332,11.333l-3.148,18.013l5.814,5.32l4.668,3.089h25.086v-4.016
			c-0.027,0-0.054,0.002-0.081,0.002c-15.771,0-25.196-6.005-25.59-6.267c-0.315-0.196-0.551-0.485-0.682-0.826
			c-0.694-1.756-0.682-5.257-0.669-5.938c0-0.014,0-0.026,0-0.039c0.014-0.105,0.014-0.211,0.014-0.328
			c0.079-2.583,0.249-8.652,5.938-10.606c0.039-0.013,0.08-0.025,0.132-0.039c5.938-1.507,10.829-4.916,10.882-4.955
			c0.799-0.563,1.9-0.367,2.464,0.433s0.367,1.901-0.433,2.465c-0.223,0.144-5.439,3.789-11.969,5.467
			c-3.055,1.087-3.396,4.352-3.488,7.341c0,0.118-0.013,0.224-0.013,0.328c-0.026,1.18,0.065,3.002,0.276,4.051
			c2.136,1.206,10.514,5.388,23.125,5.388c0.031,0,0.062-0.002,0.094-0.002v-25.666c-0.015,0-0.029,0-0.042,0
			c-0.026,0-0.052,0-0.078,0c-0.079,0-0.145,0-0.21,0c-3.842-0.066-6.947-1.417-9.229-3.999c-5.048-5.689-4.209-15.443-4.117-16.374
			c0.328-7.04,3.684-10.383,6.437-11.942c2.74-1.561,5.599-1.797,7.054-1.797h0.078c0.014,0,0.039,0,0.053,0h0.055v-4.074
			l-12.434-0.021L230.805,305.786z"/>
		<path fill="#EF3C39" d="M282.348,332.453l-13.332-11.333v-15.333l-6.654-18.328l-12.434,0.021v4.074h0.055
			c0.014,0,0.039,0,0.053,0h0.078c1.455,0,4.313,0.236,7.054,1.797c2.753,1.56,6.108,4.902,6.437,11.942
			c0.092,0.931,0.931,10.685-4.117,16.374c-2.281,2.582-5.387,3.933-9.229,3.999c-0.065,0-0.131,0-0.21,0c-0.026,0-0.052,0-0.078,0
			c-0.013,0-0.027,0-0.042,0v25.666c0.032,0,0.063,0.002,0.094,0.002c12.611,0,20.989-4.182,23.125-5.388
			c0.211-1.049,0.303-2.871,0.276-4.051c0-0.104-0.013-0.21-0.013-0.328c-0.093-2.989-0.434-6.254-3.488-7.341
			c-6.529-1.678-11.746-5.323-11.969-5.467c-0.8-0.563-0.996-1.665-0.433-2.465s1.665-0.996,2.464-0.433
			c0.053,0.039,4.943,3.448,10.882,4.955c0.052,0.014,0.093,0.026,0.132,0.039c5.688,1.954,5.858,8.023,5.938,10.606
			c0,0.117,0,0.223,0.014,0.328c0,0.013,0,0.025,0,0.039c0.013,0.682,0.025,4.183-0.669,5.938c-0.131,0.341-0.366,0.63-0.682,0.826
			c-0.394,0.262-9.819,6.267-25.59,6.267c-0.027,0-0.054-0.002-0.081-0.002v4.016h25.086l4.668-3.089l5.814-5.32L282.348,332.453z"
			/>
	</g>
	<g>
		<path fill="#FFFFFF" d="M249.785,291.554h-0.078c-1.455,0-4.313,0.236-7.054,1.797c-2.753,1.56-6.108,4.902-6.437,11.942
			c-0.092,0.931-0.931,10.685,4.117,16.374c2.281,2.582,5.387,3.933,9.229,3.999c0.065,0,0.131,0,0.21,0c0.026,0,0.052,0,0.078,0
			c0.013,0,0.027,0,0.042,0v-3.543c-0.02,0-0.036,0.003-0.055,0.003c-0.026,0-0.039,0-0.065,0s-0.039,0-0.065,0
			c-2.885-0.026-5.1-0.944-6.738-2.806c-4.156-4.667-3.265-13.621-3.252-13.7c0-0.038,0.014-0.078,0.014-0.104
			c0.432-9.4,7.105-10.41,9.963-10.41h0.053c0.026,0,0.065,0,0.104,0c0.013,0,0.028,0.001,0.042,0.002v-3.555h-0.055
			C249.824,291.554,249.799,291.554,249.785,291.554z"/>
		<path fill="#FFFFFF" d="M263.604,305.293c-0.328-7.04-3.684-10.383-6.437-11.942c-2.74-1.561-5.599-1.797-7.054-1.797h-0.078
			c-0.014,0-0.039,0-0.053,0h-0.055v3.555c0.014,0,0.029-0.001,0.042-0.002c0.039,0,0.078,0,0.104,0h0.053
			c2.857,0,9.531,1.01,9.963,10.41c0,0.025,0.014,0.065,0.014,0.104c0.013,0.079,0.904,9.033-3.252,13.7
			c-1.639,1.861-3.854,2.779-6.738,2.806c-0.026,0-0.039,0-0.065,0s-0.039,0-0.065,0c-0.019,0-0.035-0.002-0.055-0.003v3.543
			c0.015,0,0.029,0,0.042,0c0.026,0,0.052,0,0.078,0c0.079,0,0.145,0,0.21,0c3.842-0.066,6.947-1.417,9.229-3.999
			C264.534,315.978,263.695,306.224,263.604,305.293z"/>
	</g>
	<g>
		<path fill="#FFFFFF" d="M226.674,345.946c-0.211-1.049-0.303-2.871-0.276-4.051c0-0.104,0.013-0.21,0.013-0.328
			c0.093-2.989,0.434-6.254,3.488-7.341c6.529-1.678,11.746-5.323,11.969-5.467c0.8-0.563,0.996-1.665,0.433-2.465
			s-1.665-0.996-2.464-0.433c-0.053,0.039-4.943,3.448-10.882,4.955c-0.052,0.014-0.093,0.026-0.132,0.039
			c-5.688,1.954-5.858,8.023-5.938,10.606c0,0.117,0,0.223-0.014,0.328c0,0.013,0,0.025,0,0.039
			c-0.013,0.682-0.025,4.183,0.669,5.938c0.131,0.341,0.366,0.63,0.682,0.826c0.394,0.262,9.819,6.267,25.59,6.267
			c0.027,0,0.054-0.002,0.081-0.002v-3.527c-0.032,0-0.063,0.002-0.094,0.002C237.188,351.334,228.81,347.152,226.674,345.946z"/>
		<path fill="#FFFFFF" d="M276.949,341.83c0-0.014,0-0.026,0-0.039c-0.014-0.105-0.014-0.211-0.014-0.328
			c-0.079-2.583-0.249-8.652-5.938-10.606c-0.039-0.013-0.08-0.025-0.132-0.039c-5.938-1.507-10.829-4.916-10.882-4.955
			c-0.799-0.563-1.9-0.367-2.464,0.433s-0.367,1.901,0.433,2.465c0.223,0.144,5.439,3.789,11.969,5.467
			c3.055,1.087,3.396,4.352,3.488,7.341c0,0.118,0.013,0.224,0.013,0.328c0.026,1.18-0.065,3.002-0.276,4.051
			c-2.136,1.206-10.514,5.388-23.125,5.388c-0.031,0-0.062-0.002-0.094-0.002v3.527c0.027,0,0.054,0.002,0.081,0.002
			c15.771,0,25.196-6.005,25.59-6.267c0.315-0.196,0.551-0.485,0.682-0.826C276.975,346.013,276.962,342.512,276.949,341.83z"/>
	</g>
</g>
<g>
	<path fill="#EF3C39" d="M38.518,134.44c-0.039,0-0.078,0-0.104,0H38.36c-2.857,0-9.531,1.01-9.963,10.41
		c0,0.025-0.014,0.065-0.014,0.104c-0.013,0.079-0.904,9.033,3.252,13.7c1.639,1.861,3.854,2.779,6.738,2.806
		c0.026,0,0.039,0,0.065,0s0.039,0,0.065,0c0.019,0,0.035-0.002,0.055-0.003v-27.015C38.546,134.441,38.53,134.44,38.518,134.44z"/>
	<path fill="#EF3C39" d="M38.637,134.44c0.039,0,0.078,0,0.104,0h0.053c2.857,0,9.531,1.01,9.963,10.41
		c0,0.025,0.014,0.065,0.014,0.104c0.013,0.079,0.904,9.033-3.252,13.7c-1.639,1.861-3.854,2.779-6.738,2.806
		c-0.026,0-0.039,0-0.065,0s-0.039,0-0.065,0c-0.019,0-0.035-0.002-0.055-0.003v-27.015C38.608,134.441,38.624,134.44,38.637,134.44
		z"/>
	<g>
		<path fill="#EF3C39" d="M19.472,145.119v15.333L6.14,171.786l-3.148,18.013l5.814,5.32l4.668,3.089H38.56v-4.016
			c-0.027,0-0.054,0.002-0.081,0.002c-15.771,0-25.196-6.005-25.59-6.267c-0.315-0.196-0.551-0.485-0.682-0.826
			c-0.694-1.756-0.682-5.257-0.669-5.938c0-0.014,0-0.026,0-0.039c0.014-0.105,0.014-0.211,0.014-0.328
			c0.079-2.583,0.249-8.652,5.938-10.606c0.039-0.013,0.08-0.025,0.132-0.039c5.938-1.507,10.829-4.916,10.882-4.955
			c0.799-0.563,1.9-0.367,2.464,0.433s0.367,1.901-0.433,2.465c-0.223,0.144-5.439,3.789-11.969,5.467
			c-3.055,1.087-3.396,4.352-3.488,7.341c0,0.118-0.013,0.224-0.013,0.328c-0.026,1.18,0.065,3.002,0.276,4.051
			c2.136,1.206,10.514,5.388,23.125,5.388c0.031,0,0.062-0.002,0.094-0.002V165c-0.015,0-0.029,0-0.042,0c-0.026,0-0.052,0-0.078,0
			c-0.079,0-0.145,0-0.21,0c-3.842-0.066-6.947-1.417-9.229-3.999c-5.048-5.689-4.209-15.443-4.117-16.374
			c0.328-7.04,3.684-10.383,6.437-11.942c2.74-1.561,5.599-1.797,7.054-1.797h0.078c0.014,0,0.039,0,0.053,0h0.055v-4.074
			l-12.434-0.021L19.472,145.119z"/>
		<path fill="#EF3C39" d="M71.015,171.786l-13.332-11.333v-15.333l-6.654-18.328l-12.434,0.021v4.074h0.055c0.014,0,0.039,0,0.053,0
			h0.078c1.455,0,4.313,0.236,7.054,1.797c2.753,1.56,6.108,4.902,6.437,11.942c0.092,0.931,0.931,10.685-4.117,16.374
			c-2.281,2.582-5.387,3.933-9.229,3.999c-0.065,0-0.131,0-0.21,0c-0.026,0-0.052,0-0.078,0c-0.013,0-0.027,0-0.042,0v25.666
			c0.032,0,0.063,0.002,0.094,0.002c12.611,0,20.989-4.182,23.125-5.388c0.211-1.049,0.303-2.871,0.276-4.051
			c0-0.104-0.013-0.21-0.013-0.328c-0.093-2.989-0.434-6.254-3.488-7.341c-6.529-1.678-11.746-5.323-11.969-5.467
			c-0.8-0.563-0.996-1.665-0.433-2.465s1.665-0.996,2.464-0.433c0.053,0.039,4.943,3.448,10.882,4.955
			c0.052,0.014,0.093,0.026,0.132,0.039c5.688,1.954,5.858,8.023,5.938,10.606c0,0.117,0,0.223,0.014,0.328c0,0.013,0,0.025,0,0.039
			c0.013,0.682,0.025,4.183-0.669,5.938c-0.131,0.341-0.366,0.63-0.682,0.826c-0.394,0.262-9.819,6.267-25.59,6.267
			c-0.027,0-0.054-0.002-0.081-0.002v4.016h25.086l4.668-3.089l5.814-5.32L71.015,171.786z"/>
	</g>
	<g>
		<path fill="#FFFFFF" d="M38.452,130.887h-0.078c-1.455,0-4.313,0.236-7.054,1.797c-2.753,1.56-6.108,4.902-6.437,11.942
			c-0.092,0.931-0.931,10.685,4.117,16.374c2.281,2.582,5.387,3.933,9.229,3.999c0.065,0,0.131,0,0.21,0c0.026,0,0.052,0,0.078,0
			c0.013,0,0.027,0,0.042,0v-3.543c-0.02,0-0.036,0.003-0.055,0.003c-0.026,0-0.039,0-0.065,0s-0.039,0-0.065,0
			c-2.885-0.026-5.1-0.944-6.738-2.806c-4.156-4.667-3.265-13.621-3.252-13.7c0-0.038,0.014-0.078,0.014-0.104
			c0.432-9.4,7.105-10.41,9.963-10.41h0.053c0.026,0,0.065,0,0.104,0c0.013,0,0.028,0.001,0.042,0.002v-3.555h-0.055
			C38.491,130.887,38.466,130.887,38.452,130.887z"/>
		<path fill="#FFFFFF" d="M52.271,144.626c-0.328-7.04-3.684-10.383-6.437-11.942c-2.74-1.561-5.599-1.797-7.054-1.797h-0.078
			c-0.014,0-0.039,0-0.053,0h-0.055v3.555c0.014,0,0.029-0.001,0.042-0.002c0.039,0,0.078,0,0.104,0h0.053
			c2.857,0,9.531,1.01,9.963,10.41c0,0.025,0.014,0.065,0.014,0.104c0.013,0.079,0.904,9.033-3.252,13.7
			c-1.639,1.861-3.854,2.779-6.738,2.806c-0.026,0-0.039,0-0.065,0s-0.039,0-0.065,0c-0.019,0-0.035-0.002-0.055-0.003V165
			c0.015,0,0.029,0,0.042,0c0.026,0,0.052,0,0.078,0c0.079,0,0.145,0,0.21,0c3.842-0.066,6.947-1.417,9.229-3.999
			C53.201,155.311,52.362,145.557,52.271,144.626z"/>
	</g>
	<g>
		<path fill="#FFFFFF" d="M15.341,185.28c-0.211-1.049-0.303-2.871-0.276-4.051c0-0.104,0.013-0.21,0.013-0.328
			c0.093-2.989,0.434-6.254,3.488-7.341c6.529-1.678,11.746-5.323,11.969-5.467c0.8-0.563,0.996-1.665,0.433-2.465
			s-1.665-0.996-2.464-0.433c-0.053,0.039-4.943,3.448-10.882,4.955c-0.052,0.014-0.093,0.026-0.132,0.039
			c-5.688,1.954-5.858,8.023-5.938,10.606c0,0.117,0,0.223-0.014,0.328c0,0.013,0,0.025,0,0.039
			c-0.013,0.682-0.025,4.183,0.669,5.938c0.131,0.341,0.366,0.63,0.682,0.826c0.394,0.262,9.819,6.267,25.59,6.267
			c0.027,0,0.054-0.002,0.081-0.002v-3.527c-0.032,0-0.063,0.002-0.094,0.002C25.854,190.667,17.477,186.486,15.341,185.28z"/>
		<path fill="#FFFFFF" d="M65.616,181.164c0-0.014,0-0.026,0-0.039c-0.014-0.105-0.014-0.211-0.014-0.328
			c-0.079-2.583-0.249-8.652-5.938-10.606c-0.039-0.013-0.08-0.025-0.132-0.039c-5.938-1.507-10.829-4.916-10.882-4.955
			c-0.799-0.563-1.9-0.367-2.464,0.433s-0.367,1.901,0.433,2.465c0.223,0.144,5.439,3.789,11.969,5.467
			c3.055,1.087,3.396,4.352,3.488,7.341c0,0.118,0.013,0.224,0.013,0.328c0.026,1.18-0.065,3.002-0.276,4.051
			c-2.136,1.206-10.514,5.388-23.125,5.388c-0.031,0-0.062-0.002-0.094-0.002v3.527c0.027,0,0.054,0.002,0.081,0.002
			c15.771,0,25.196-6.005,25.59-6.267c0.315-0.196,0.551-0.485,0.682-0.826C65.642,185.346,65.629,181.845,65.616,181.164z"/>
	</g>
</g>
<g>
	<path fill="#EF3C39" d="M196.019,17.19c-0.039,0-0.078,0-0.104,0h-0.053c-2.857,0-9.531,1.01-9.963,10.41
		c0,0.025-0.014,0.065-0.014,0.104c-0.013,0.079-0.904,9.033,3.252,13.7c1.639,1.861,3.854,2.779,6.738,2.806
		c0.026,0,0.039,0,0.065,0s0.039,0,0.065,0c0.019,0,0.035-0.002,0.055-0.003V17.192C196.047,17.192,196.031,17.191,196.019,17.19z"
		/>
	<path fill="#EF3C39" d="M196.138,17.19c0.039,0,0.078,0,0.104,0h0.053c2.857,0,9.531,1.01,9.963,10.41
		c0,0.025,0.014,0.065,0.014,0.104c0.013,0.079,0.904,9.033-3.252,13.7c-1.639,1.861-3.854,2.779-6.738,2.806
		c-0.026,0-0.039,0-0.065,0s-0.039,0-0.065,0c-0.019,0-0.035-0.002-0.055-0.003V17.192C196.109,17.192,196.125,17.191,196.138,17.19
		z"/>
	<g>
		<path fill="#EF3C39" d="M176.973,27.87v15.333l-13.332,11.333l-3.148,18.013l5.814,5.32l4.668,3.089h25.086v-4.016
			c-0.027,0-0.054,0.002-0.081,0.002c-15.771,0-25.196-6.005-25.59-6.267c-0.315-0.196-0.551-0.485-0.682-0.826
			c-0.694-1.756-0.682-5.257-0.669-5.938c0-0.014,0-0.026,0-0.039c0.014-0.105,0.014-0.211,0.014-0.328
			c0.079-2.583,0.249-8.652,5.938-10.606c0.039-0.013,0.08-0.025,0.132-0.039c5.938-1.507,10.829-4.916,10.882-4.955
			c0.799-0.563,1.9-0.367,2.464,0.433s0.367,1.901-0.433,2.465c-0.223,0.144-5.439,3.789-11.969,5.467
			c-3.055,1.087-3.396,4.352-3.488,7.341c0,0.118-0.013,0.224-0.013,0.328c-0.026,1.18,0.065,3.002,0.276,4.051
			c2.136,1.206,10.514,5.388,23.125,5.388c0.031,0,0.062-0.002,0.094-0.002V47.75c-0.015,0-0.029,0-0.042,0
			c-0.026,0-0.052,0-0.078,0c-0.079,0-0.145,0-0.21,0c-3.842-0.066-6.947-1.417-9.229-3.999c-5.048-5.689-4.209-15.443-4.117-16.374
			c0.328-7.04,3.684-10.383,6.437-11.942c2.74-1.561,5.599-1.797,7.054-1.797h0.078c0.014,0,0.039,0,0.053,0h0.055V9.563
			l-12.434-0.021L176.973,27.87z"/>
		<path fill="#EF3C39" d="M228.516,54.537l-13.332-11.333V27.87l-6.654-18.328l-12.434,0.021v4.074h0.055c0.014,0,0.039,0,0.053,0
			h0.078c1.455,0,4.313,0.236,7.054,1.797c2.753,1.56,6.108,4.902,6.437,11.942c0.092,0.931,0.931,10.685-4.117,16.374
			c-2.281,2.582-5.387,3.933-9.229,3.999c-0.065,0-0.131,0-0.21,0c-0.026,0-0.052,0-0.078,0c-0.013,0-0.027,0-0.042,0v25.666
			c0.032,0,0.063,0.002,0.094,0.002c12.611,0,20.989-4.182,23.125-5.388c0.211-1.049,0.303-2.871,0.276-4.051
			c0-0.104-0.013-0.21-0.013-0.328c-0.093-2.989-0.434-6.254-3.488-7.341c-6.529-1.678-11.746-5.323-11.969-5.467
			c-0.8-0.563-0.996-1.665-0.433-2.465s1.665-0.996,2.464-0.433c0.053,0.039,4.943,3.448,10.882,4.955
			c0.052,0.014,0.093,0.026,0.132,0.039c5.688,1.954,5.858,8.023,5.938,10.606c0,0.117,0,0.223,0.014,0.328c0,0.013,0,0.025,0,0.039
			c0.013,0.682,0.025,4.183-0.669,5.938c-0.131,0.341-0.366,0.63-0.682,0.826c-0.394,0.262-9.819,6.267-25.59,6.267
			c-0.027,0-0.054-0.002-0.081-0.002v4.016h25.086l4.668-3.089l5.814-5.32L228.516,54.537z"/>
	</g>
	<g>
		<path fill="#FFFFFF" d="M195.953,13.638h-0.078c-1.455,0-4.313,0.236-7.054,1.797c-2.753,1.56-6.108,4.902-6.437,11.942
			c-0.092,0.931-0.931,10.685,4.117,16.374c2.281,2.582,5.387,3.933,9.229,3.999c0.065,0,0.131,0,0.21,0c0.026,0,0.052,0,0.078,0
			c0.013,0,0.027,0,0.042,0v-3.543c-0.02,0-0.036,0.003-0.055,0.003c-0.026,0-0.039,0-0.065,0s-0.039,0-0.065,0
			c-2.885-0.026-5.1-0.944-6.738-2.806c-4.156-4.667-3.265-13.621-3.252-13.7c0-0.038,0.014-0.078,0.014-0.104
			c0.432-9.4,7.105-10.41,9.963-10.41h0.053c0.026,0,0.065,0,0.104,0c0.013,0,0.028,0.001,0.042,0.002v-3.555h-0.055
			C195.992,13.638,195.967,13.638,195.953,13.638z"/>
		<path fill="#FFFFFF" d="M209.771,27.377c-0.328-7.04-3.684-10.383-6.437-11.942c-2.74-1.561-5.599-1.797-7.054-1.797h-0.078
			c-0.014,0-0.039,0-0.053,0h-0.055v3.555c0.014,0,0.029-0.001,0.042-0.002c0.039,0,0.078,0,0.104,0h0.053
			c2.857,0,9.531,1.01,9.963,10.41c0,0.025,0.014,0.065,0.014,0.104c0.013,0.079,0.904,9.033-3.252,13.7
			c-1.639,1.861-3.854,2.779-6.738,2.806c-0.026,0-0.039,0-0.065,0s-0.039,0-0.065,0c-0.019,0-0.035-0.002-0.055-0.003v3.543
			c0.015,0,0.029,0,0.042,0c0.026,0,0.052,0,0.078,0c0.079,0,0.145,0,0.21,0c3.842-0.066,6.947-1.417,9.229-3.999
			C210.702,38.062,209.863,28.308,209.771,27.377z"/>
	</g>
	<g>
		<path fill="#FFFFFF" d="M172.842,68.03c-0.211-1.049-0.303-2.871-0.276-4.051c0-0.104,0.013-0.21,0.013-0.328
			c0.093-2.989,0.434-6.254,3.488-7.341c6.529-1.678,11.746-5.323,11.969-5.467c0.8-0.563,0.996-1.665,0.433-2.465
			s-1.665-0.996-2.464-0.433c-0.053,0.039-4.943,3.448-10.882,4.955c-0.052,0.014-0.093,0.026-0.132,0.039
			c-5.688,1.954-5.858,8.023-5.938,10.606c0,0.117,0,0.223-0.014,0.328c0,0.013,0,0.025,0,0.039
			c-0.013,0.682-0.025,4.183,0.669,5.938c0.131,0.341,0.366,0.63,0.682,0.826c0.394,0.262,9.819,6.267,25.59,6.267
			c0.027,0,0.054-0.002,0.081-0.002v-3.527c-0.032,0-0.063,0.002-0.094,0.002C183.355,73.418,174.978,69.236,172.842,68.03z"/>
		<path fill="#FFFFFF" d="M223.117,63.914c0-0.014,0-0.026,0-0.039c-0.014-0.105-0.014-0.211-0.014-0.328
			c-0.079-2.583-0.249-8.652-5.938-10.606c-0.039-0.013-0.08-0.025-0.132-0.039c-5.938-1.507-10.829-4.916-10.882-4.955
			c-0.799-0.563-1.9-0.367-2.464,0.433s-0.367,1.901,0.433,2.465c0.223,0.144,5.439,3.789,11.969,5.467
			c3.055,1.087,3.396,4.352,3.488,7.341c0,0.118,0.013,0.224,0.013,0.328c0.026,1.18-0.065,3.002-0.276,4.051
			c-2.136,1.206-10.514,5.388-23.125,5.388c-0.031,0-0.062-0.002-0.094-0.002v3.527c0.027,0,0.054,0.002,0.081,0.002
			c15.771,0,25.196-6.005,25.59-6.267c0.315-0.196,0.551-0.485,0.682-0.826C223.143,68.097,223.13,64.596,223.117,63.914z"/>
	</g>
</g>
<g>
	<path fill="#EF3C39" d="M379.851,56.44c-0.039,0-0.078,0-0.104,0h-0.053c-2.857,0-9.531,1.01-9.963,10.41
		c0,0.025-0.014,0.065-0.014,0.104c-0.013,0.079-0.904,9.033,3.252,13.7c1.639,1.861,3.854,2.779,6.738,2.806
		c0.026,0,0.039,0,0.065,0s0.039,0,0.065,0c0.019,0,0.035-0.002,0.055-0.003V56.442C379.879,56.441,379.864,56.44,379.851,56.44z"/>
	<path fill="#EF3C39" d="M379.97,56.44c0.039,0,0.078,0,0.104,0h0.053c2.857,0,9.531,1.01,9.963,10.41
		c0,0.025,0.014,0.065,0.014,0.104c0.013,0.079,0.904,9.033-3.252,13.7c-1.639,1.861-3.854,2.779-6.738,2.806
		c-0.026,0-0.039,0-0.065,0s-0.039,0-0.065,0c-0.019,0-0.035-0.002-0.055-0.003V56.442C379.942,56.441,379.958,56.44,379.97,56.44z"
		/>
	<g>
		<path fill="#EF3C39" d="M360.805,67.119v15.333l-13.332,11.333l-3.148,18.013l5.814,5.32l4.668,3.089h25.086v-4.016
			c-0.027,0-0.054,0.002-0.081,0.002c-15.771,0-25.196-6.005-25.59-6.267c-0.315-0.196-0.551-0.485-0.682-0.826
			c-0.694-1.756-0.682-5.257-0.669-5.938c0-0.014,0-0.026,0-0.039c0.014-0.105,0.014-0.211,0.014-0.328
			c0.079-2.583,0.249-8.652,5.938-10.606c0.039-0.013,0.08-0.025,0.132-0.039c5.938-1.507,10.829-4.916,10.882-4.955
			c0.799-0.563,1.9-0.367,2.464,0.433s0.367,1.901-0.433,2.465c-0.223,0.144-5.439,3.789-11.969,5.467
			c-3.055,1.087-3.396,4.352-3.488,7.341c0,0.118-0.013,0.224-0.013,0.328c-0.026,1.18,0.065,3.002,0.276,4.051
			c2.136,1.206,10.514,5.388,23.125,5.388c0.031,0,0.062-0.002,0.094-0.002V87c-0.015,0-0.029,0-0.042,0c-0.026,0-0.052,0-0.078,0
			c-0.079,0-0.145,0-0.21,0c-3.842-0.066-6.947-1.417-9.229-3.999c-5.048-5.689-4.209-15.443-4.117-16.374
			c0.328-7.04,3.684-10.383,6.437-11.942c2.74-1.561,5.599-1.797,7.054-1.797h0.078c0.014,0,0.039,0,0.053,0h0.055v-4.074
			l-12.434-0.021L360.805,67.119z"/>
		<path fill="#EF3C39" d="M412.348,93.786l-13.332-11.333V67.119l-6.654-18.328l-12.434,0.021v4.074h0.055c0.014,0,0.039,0,0.053,0
			h0.078c1.455,0,4.313,0.236,7.054,1.797c2.753,1.56,6.108,4.902,6.437,11.942c0.092,0.931,0.931,10.685-4.117,16.374
			c-2.281,2.582-5.387,3.933-9.229,3.999c-0.065,0-0.131,0-0.21,0c-0.026,0-0.052,0-0.078,0c-0.013,0-0.027,0-0.042,0v25.666
			c0.032,0,0.063,0.002,0.094,0.002c12.611,0,20.989-4.182,23.125-5.388c0.211-1.049,0.303-2.871,0.276-4.051
			c0-0.104-0.013-0.21-0.013-0.328c-0.093-2.989-0.434-6.254-3.488-7.341c-6.529-1.678-11.746-5.323-11.969-5.467
			c-0.8-0.563-0.996-1.665-0.433-2.465s1.665-0.996,2.464-0.433c0.053,0.039,4.943,3.448,10.882,4.955
			c0.052,0.014,0.093,0.026,0.132,0.039c5.688,1.954,5.858,8.023,5.938,10.606c0,0.117,0,0.223,0.014,0.328c0,0.013,0,0.025,0,0.039
			c0.013,0.682,0.025,4.183-0.669,5.938c-0.131,0.341-0.366,0.63-0.682,0.826c-0.394,0.262-9.819,6.267-25.59,6.267
			c-0.027,0-0.054-0.002-0.081-0.002v4.016h25.086l4.668-3.089l5.814-5.32L412.348,93.786z"/>
	</g>
	<g>
		<path fill="#FFFFFF" d="M379.786,52.887h-0.078c-1.455,0-4.313,0.236-7.054,1.797c-2.753,1.56-6.108,4.902-6.437,11.942
			c-0.092,0.931-0.931,10.685,4.117,16.374c2.281,2.582,5.387,3.933,9.229,3.999c0.065,0,0.131,0,0.21,0c0.026,0,0.052,0,0.078,0
			c0.013,0,0.027,0,0.042,0v-3.543c-0.02,0-0.036,0.003-0.055,0.003c-0.026,0-0.039,0-0.065,0s-0.039,0-0.065,0
			c-2.885-0.026-5.1-0.944-6.738-2.806c-4.156-4.667-3.265-13.621-3.252-13.7c0-0.038,0.014-0.078,0.014-0.104
			c0.432-9.4,7.105-10.41,9.963-10.41h0.053c0.026,0,0.065,0,0.104,0c0.013,0,0.028,0.001,0.042,0.002v-3.555h-0.055
			C379.825,52.887,379.799,52.887,379.786,52.887z"/>
		<path fill="#FFFFFF" d="M393.604,66.626c-0.328-7.04-3.684-10.383-6.437-11.942c-2.74-1.561-5.599-1.797-7.054-1.797h-0.078
			c-0.014,0-0.039,0-0.053,0h-0.055v3.555c0.014,0,0.029-0.001,0.042-0.002c0.039,0,0.078,0,0.104,0h0.053
			c2.857,0,9.531,1.01,9.963,10.41c0,0.025,0.014,0.065,0.014,0.104c0.013,0.079,0.904,9.033-3.252,13.7
			c-1.639,1.861-3.854,2.779-6.738,2.806c-0.026,0-0.039,0-0.065,0s-0.039,0-0.065,0c-0.019,0-0.035-0.002-0.055-0.003V87
			c0.015,0,0.029,0,0.042,0c0.026,0,0.052,0,0.078,0c0.079,0,0.145,0,0.21,0c3.842-0.066,6.947-1.417,9.229-3.999
			C394.535,77.311,393.696,67.557,393.604,66.626z"/>
	</g>
	<g>
		<path fill="#FFFFFF" d="M356.674,107.28c-0.211-1.049-0.303-2.871-0.276-4.051c0-0.104,0.013-0.21,0.013-0.328
			c0.093-2.989,0.434-6.254,3.488-7.341c6.529-1.678,11.746-5.323,11.969-5.467c0.8-0.563,0.996-1.665,0.433-2.465
			s-1.665-0.996-2.464-0.433c-0.053,0.039-4.943,3.448-10.882,4.955c-0.052,0.014-0.093,0.026-0.132,0.039
			c-5.688,1.954-5.858,8.023-5.938,10.606c0,0.117,0,0.223-0.014,0.328c0,0.013,0,0.025,0,0.039
			c-0.013,0.682-0.025,4.183,0.669,5.938c0.131,0.341,0.366,0.63,0.682,0.826c0.394,0.262,9.819,6.267,25.59,6.267
			c0.027,0,0.054-0.002,0.081-0.002v-3.527c-0.032,0-0.063,0.002-0.094,0.002C367.188,112.667,358.81,108.486,356.674,107.28z"/>
		<path fill="#FFFFFF" d="M406.95,103.164c0-0.014,0-0.026,0-0.039c-0.014-0.105-0.014-0.211-0.014-0.328
			c-0.079-2.583-0.249-8.652-5.938-10.606c-0.039-0.013-0.08-0.025-0.132-0.039c-5.938-1.507-10.829-4.916-10.882-4.955
			c-0.799-0.563-1.9-0.367-2.464,0.433s-0.367,1.901,0.433,2.465c0.223,0.144,5.439,3.789,11.969,5.467
			c3.055,1.087,3.396,4.352,3.488,7.341c0,0.118,0.013,0.224,0.013,0.328c0.026,1.18-0.065,3.002-0.276,4.051
			c-2.136,1.206-10.514,5.388-23.125,5.388c-0.031,0-0.062-0.002-0.094-0.002v3.527c0.027,0,0.054,0.002,0.081,0.002
			c15.771,0,25.196-6.005,25.59-6.267c0.315-0.196,0.551-0.485,0.682-0.826C406.975,107.346,406.962,103.845,406.95,103.164z"/>
	</g>
</g>
</svg>
