<?xml version="1.0" encoding="iso-8859-1"?>
<!-- Generator: Adobe Illustrator 17.1.0, SVG Export Plug-In . SVG Version: 6.00 Build 0)  -->
<!DOCTYPE svg PUBLIC "-//W3C//DTD SVG 1.1//EN" "http://www.w3.org/Graphics/SVG/1.1/DTD/svg11.dtd">
<svg xmlns="http://www.w3.org/2000/svg" xmlns:xlink="http://www.w3.org/1999/xlink" version="1.1" id="Capa_1" x="0px" y="0px" viewBox="0 0 211.077 211.077" style="enable-background:new 0 0 211.077 211.077;" xml:space="preserve" width="512px" height="512px">
<path d="M105.47,211.077c-37.51,0-68.027-30.517-68.027-68.027v-0.987h-1.488c-11.568,0-20.979-9.411-20.979-20.979v-9.606  c0-11.567,9.411-20.979,20.979-20.979h1.488V59.58c0-11.853,5.486-23.12,14.753-30.465c-0.333-1.606-0.506-3.262-0.506-4.943  c0-4.318,2.3-8.755,6.153-11.867c0.039-0.031,0.078-0.062,0.118-0.091l2.334-1.666c0.083-0.059,0.169-0.112,0.258-0.161  c0.363-0.197,0.774-0.445,1.245-0.728c2.199-1.319,5.523-3.313,11.019-4.99c7.577-2.485,15.577-3.941,24.416-4.438  c33.891-1.902,64.06,8.079,73.374,24.27c0.003,0.007,0.007,0.013,0.01,0.019c1.203,1.946,2,3.408,2.775,5.075  c7.619,16.387,1.423,33.586,0.107,36.861v24.042h1.624c11.568,0,20.979,9.411,20.979,20.979v9.606  c0,11.568-9.411,20.979-20.979,20.979h-1.624v0.987C173.498,180.56,142.981,211.077,105.47,211.077z M42.443,139.562v3.487  c0,34.753,28.274,63.027,63.027,63.027c34.754,0,63.028-28.274,63.028-63.027v-21.19h-4.429c-0.668,0-1.308-0.268-1.778-0.742  c-0.47-0.476-0.729-1.118-0.722-1.786c0.003-0.29,0.303-29.082-1.925-37.997c-2.014-8.056-7.763-11.271-8.006-11.404  c-0.596-0.325-1.041-0.883-1.22-1.537s-0.092-1.357,0.254-1.941c0.033-0.055,3.431-5.875,3.581-11.457  c0.023-0.87-3.563-2.989-8.306-4.339c-5.414-1.157-9.578-1.098-9.681-1.095c-0.019,0.001-0.042,0.001-0.061,0.001h-52  c-7.519,0-14.017-1.292-19.313-3.841c-0.886-0.427-1.739-0.908-2.555-1.44c-2.334,2.7-5.657,7.304-5.648,10.775  c0.014,5.524,3.523,11.303,3.559,11.36c0.361,0.589,0.464,1.302,0.283,1.968s-0.63,1.229-1.24,1.553  c-0.231,0.126-5.98,3.342-7.994,11.397c-2.229,8.915-1.929,37.707-1.925,37.997c0.007,0.668-0.252,1.311-0.722,1.786  c-0.47,0.475-1.11,0.742-1.778,0.742h-4.429V139.562z M173.634,137.062h1.488c8.811,0,15.979-7.168,15.979-15.979v-9.606  c0-8.811-7.168-15.979-15.979-15.979h-1.488V137.062z M35.955,95.498c-8.811,0-15.979,7.168-15.979,15.979v9.606  c0,8.812,7.168,15.979,15.979,15.979h1.488V95.498H35.955z M166.585,116.859h1.913V66.594c-2.173-4.739-5.537-8.16-9.288-10.631  c-0.302,4.367-1.991,8.548-3.145,10.954c2.525,1.973,6.663,6.138,8.429,13.204C166.493,88.118,166.608,109.461,166.585,116.859z   M42.443,116.859h1.913c-0.023-7.398,0.092-28.741,2.091-36.738c1.761-7.043,5.876-11.204,8.404-13.185  c-1.272-2.576-3.15-7.171-3.162-11.869c-0.013-5.307,4.219-11.004,6.778-13.963c-1.923-1.964-3.501-4.273-4.648-6.826  C46.643,40.669,42.443,49.9,42.443,59.58V116.859z M136.65,44.477c3.39,0,23.563,0.638,33.743,15.312  c0.355-1.348,0.71-2.914,1.002-4.646c-2.933-2.857-13.529-12.211-29.297-15.209c-11.023-2.095-24.042-1.284-36.633-0.499  c-9.36,0.584-19.04,1.188-27.616,0.536c-8.314-0.632-14.077-2.802-18.02-5.228c1.809,2.759,4.323,5.017,7.344,6.452  c4.59,2.181,10.316,3.287,17.021,3.287h52C136.259,44.48,136.414,44.477,136.65,44.477z M125.357,33.6  c6.125,0,12.095,0.361,17.675,1.422c13.856,2.635,23.881,9.605,29.015,13.95c0.089-2.201,0.025-4.528-0.271-6.915  c-6.971-6.976-19.331-11.842-35.824-14.089c-8.736-1.19-18.694,0.164-29.239,1.599c-10.625,1.445-21.613,2.939-31.5,1.64  c-10.966-1.442-15.992-5.392-18.282-8.933c-0.158,0.638-0.241,1.275-0.241,1.898c0,0.235,0.004,0.47,0.013,0.703  c0.811,1.57,5.428,8.887,21.526,10.109c8.232,0.627,17.312,0.059,26.926-0.54C111.87,34.025,118.705,33.6,125.357,33.6z   M128.72,22.52c2.712,0,5.358,0.146,7.906,0.492c13.973,1.905,25.27,5.678,33.214,11.042c-0.293-0.786-0.62-1.57-0.983-2.352  c-0.705-1.517-1.44-2.857-2.538-4.627c-0.019-0.031-0.039-0.064-0.058-0.099c-8.288-14.376-37.197-23.521-68.75-21.754  c-8.398,0.472-15.979,1.849-23.177,4.209c-0.04,0.014-0.087,0.027-0.128,0.039c-4.84,1.478-7.847,3.281-9.837,4.476  c-0.48,0.288-0.907,0.543-1.289,0.755l-2.152,1.536c-0.292,0.239-0.573,0.49-0.84,0.75c0.315,1.971,2.401,7.501,15.775,9.261  c9.224,1.216,19.874-0.236,30.173-1.637C113.631,23.579,121.414,22.52,128.72,22.52z M90.165,186.541  c-0.604,0-1.209-0.217-1.689-0.657c-1.016-0.932-1.086-2.509-0.158-3.527c0.091-0.102,6.681-7.524,6.681-18.648  c0-11.091-6.561-18.023-6.627-18.093c-0.956-0.991-0.933-2.572,0.055-3.531c0.987-0.961,2.562-0.942,3.526,0.042  c0.303,0.311,6.901,7.187,7.916,18.623c1.438-0.229,3.568-0.458,6.318-0.458c2.654,0,4.687,0.224,6.094,0.459  c1.15-11.173,7.516-18.241,7.813-18.565c0.932-1.018,2.515-1.087,3.532-0.153c1.016,0.931,1.086,2.509,0.158,3.526l0,0  c-0.066,0.074-6.681,7.504-6.681,18.65c0,11.185,6.554,18.018,6.621,18.085c0.965,0.987,0.947,2.57-0.04,3.535  s-2.569,0.949-3.535-0.039c-0.315-0.322-7.422-7.732-8.007-19.978c-1.069-0.218-3.071-0.521-5.955-0.521  c-3.046,0-5.173,0.313-6.253,0.522c-0.747,11.951-7.617,19.58-7.925,19.917C91.515,186.268,90.841,186.541,90.165,186.541z   M130.08,126.743c-9.801,0-17.775-7.974-17.775-17.775c0-9.801,7.974-17.774,17.775-17.774s17.775,7.974,17.775,17.774  C147.855,118.769,139.881,126.743,130.08,126.743z M130.08,96.193c-7.044,0-12.775,5.73-12.775,12.774s5.731,12.775,12.775,12.775  c7.044,0,12.775-5.731,12.775-12.775S137.124,96.193,130.08,96.193z M81.116,126.743c-9.801,0-17.775-7.974-17.775-17.775  c0-9.801,7.974-17.774,17.775-17.774s17.775,7.974,17.775,17.774C98.891,118.769,90.917,126.743,81.116,126.743z M81.116,96.193  c-7.044,0-12.775,5.73-12.775,12.774s5.731,12.775,12.775,12.775s12.775-5.731,12.775-12.775S88.16,96.193,81.116,96.193z   M130.08,111.718c-1.381,0-2.5-1.119-2.5-2.5v-0.25c0-1.381,1.119-2.5,2.5-2.5s2.5,1.119,2.5,2.5v0.25  C132.58,110.599,131.46,111.718,130.08,111.718z M81.116,111.718c-1.381,0-2.5-1.119-2.5-2.5v-0.25c0-1.381,1.119-2.5,2.5-2.5  s2.5,1.119,2.5,2.5v0.25C83.616,110.599,82.497,111.718,81.116,111.718z M72.948,80.753c-0.739,0-1.47-0.326-1.963-0.951  c-0.856-1.083-0.671-2.655,0.413-3.511l16.338-12.9c1.084-0.855,2.656-0.671,3.511,0.413c0.856,1.083,0.671,2.655-0.413,3.511  l-16.338,12.9C74.037,80.577,73.491,80.753,72.948,80.753z M138.968,79.715c-0.443,0-0.891-0.117-1.297-0.364l-17.782-10.823  c-1.179-0.718-1.554-2.256-0.836-3.436c0.718-1.179,2.256-1.553,3.436-0.836l17.782,10.823c1.179,0.718,1.554,2.256,0.836,3.436  C140.636,79.288,139.812,79.715,138.968,79.715z" fill="#ee3b39"/>
<g>
</g>
<g>
</g>
<g>
</g>
<g>
</g>
<g>
</g>
<g>
</g>
<g>
</g>
<g>
</g>
<g>
</g>
<g>
</g>
<g>
</g>
<g>
</g>
<g>
</g>
<g>
</g>
<g>
</g>
</svg>
