<?xml version="1.0" encoding="iso-8859-1"?>
<!-- Generator: Adobe Illustrator 19.0.0, SVG Export Plug-In . SVG Version: 6.00 Build 0)  -->
<svg xmlns="http://www.w3.org/2000/svg" xmlns:xlink="http://www.w3.org/1999/xlink" version="1.1" id="Layer_1" x="0px" y="0px" viewBox="0 0 512.001 512.001" style="enable-background:new 0 0 512.001 512.001;" xml:space="preserve" width="512px" height="512px">
<g>
	<g>
		<path d="M377.796,118.641c-0.002-0.261-0.019-0.524-0.041-0.786c-0.006-0.079-0.006-0.159-0.014-0.236    c-0.02-0.173-0.052-0.346-0.08-0.519c-0.025-0.167-0.047-0.336-0.082-0.501c-0.017-0.081-0.043-0.162-0.063-0.243    c-0.059-0.252-0.123-0.503-0.201-0.747c-0.002-0.009-0.004-0.018-0.007-0.026c-0.019-0.059-0.045-0.112-0.065-0.17    c-0.085-0.248-0.174-0.494-0.278-0.732c-0.048-0.111-0.104-0.216-0.155-0.323c-0.088-0.183-0.175-0.366-0.273-0.543    c-0.08-0.145-0.17-0.283-0.256-0.423c-0.082-0.131-0.16-0.263-0.248-0.39c-0.107-0.157-0.225-0.306-0.34-0.456    c-0.08-0.102-0.157-0.207-0.241-0.307c-0.124-0.148-0.257-0.288-0.389-0.428c-0.09-0.095-0.178-0.192-0.27-0.283    c-0.129-0.126-0.263-0.243-0.397-0.36c-0.111-0.099-0.222-0.197-0.338-0.29c-0.12-0.097-0.245-0.187-0.37-0.277    c-0.14-0.103-0.28-0.206-0.426-0.301c-0.108-0.07-0.219-0.134-0.329-0.2c-0.17-0.103-0.34-0.203-0.517-0.295    c-0.098-0.052-0.198-0.096-0.298-0.144c-0.191-0.093-0.384-0.183-0.582-0.263c-0.101-0.041-0.203-0.075-0.306-0.112    c-0.198-0.072-0.395-0.145-0.599-0.204c-0.126-0.037-0.254-0.065-0.383-0.099c-0.18-0.045-0.359-0.093-0.544-0.129    c-0.177-0.034-0.355-0.056-0.534-0.081c-0.14-0.02-0.277-0.044-0.42-0.058c-0.238-0.022-0.478-0.03-0.72-0.036    c-0.079-0.002-0.155-0.012-0.235-0.012c-0.012,0-0.022,0.002-0.034,0.002c-0.243,0.001-0.487,0.018-0.731,0.037    c-0.096,0.007-0.193,0.008-0.288,0.018c-0.163,0.018-0.325,0.049-0.488,0.074c-0.177,0.027-0.353,0.05-0.526,0.086    c-0.082,0.018-0.164,0.044-0.247,0.063c-0.249,0.06-0.497,0.121-0.738,0.198c-0.011,0.004-0.021,0.006-0.03,0.009L193,164.845    c-0.021,0.007-0.043,0.014-0.064,0.021l-0.072,0.023c-0.067,0.023-0.131,0.052-0.197,0.075c-0.237,0.083-0.473,0.168-0.701,0.268    c-0.119,0.051-0.23,0.111-0.347,0.167c-0.175,0.084-0.351,0.166-0.519,0.26c-0.152,0.085-0.298,0.179-0.444,0.27    c-0.124,0.077-0.249,0.151-0.368,0.233c-0.164,0.112-0.318,0.233-0.475,0.354c-0.097,0.075-0.195,0.147-0.288,0.227    c-0.155,0.13-0.301,0.267-0.446,0.405c-0.089,0.084-0.18,0.165-0.265,0.253c-0.132,0.135-0.256,0.275-0.38,0.418    c-0.091,0.104-0.184,0.205-0.27,0.313c-0.105,0.129-0.201,0.264-0.299,0.398c-0.095,0.13-0.19,0.26-0.279,0.395    c-0.078,0.119-0.148,0.243-0.223,0.365c-0.094,0.158-0.188,0.315-0.273,0.479c-0.059,0.112-0.11,0.229-0.164,0.343    c-0.085,0.177-0.168,0.354-0.242,0.536c-0.049,0.118-0.089,0.24-0.133,0.361c-0.064,0.18-0.131,0.358-0.186,0.543    c-0.043,0.147-0.076,0.296-0.113,0.444c-0.04,0.161-0.082,0.319-0.114,0.482c-0.04,0.2-0.065,0.402-0.093,0.605    c-0.016,0.116-0.036,0.231-0.047,0.35c-0.026,0.262-0.035,0.526-0.041,0.791c0,0.059-0.008,0.116-0.008,0.175v0.063    c0,0.029-0.001,0.059,0,0.089v56.72c0,0.026-0.001,0.054,0,0.081v112.182c-7.416-4.533-16.388-7.034-26.093-7.034    c-10.534,0-21.171,2.927-30.761,8.464c-26.32,15.195-37.156,45.878-24.156,68.395c7.861,13.615,23.021,21.743,40.553,21.743    c10.533,0,21.17-2.927,30.762-8.464c18.201-10.51,28.991-28.425,29.619-45.924c0.046-0.387,0.076-0.777,0.076-1.176V238.476    l151.849-49.247v98.572c-7.416-4.533-16.387-7.034-26.092-7.034c-10.533,0-21.171,2.928-30.761,8.465    c-26.319,15.195-37.156,45.879-24.155,68.398c7.86,13.613,23.021,21.74,40.553,21.74c10.532,0,21.169-2.926,30.762-8.462    c18.199-10.51,28.988-28.424,29.618-45.925c0.046-0.387,0.075-0.778,0.075-1.178V175.404c0-0.026,0.001-0.054,0-0.081v-56.656    C377.797,118.658,377.796,118.649,377.796,118.641z M166.253,409.321c-6.555,3.784-13.734,5.784-20.762,5.784    c-10.302,0-18.986-4.391-23.233-11.743c-7.486-12.968,0.066-31.395,16.836-41.076c6.555-3.784,13.732-5.784,20.761-5.784    c10.302,0,18.987,4.391,23.233,11.743c1.784,3.092,2.705,6.495,2.859,10.015v1.281c0,0.129,0.014,0.253,0.019,0.38    C185.702,390.711,178.398,402.309,166.253,409.321z M205.949,217.45v-35.778l151.849-49.249v35.779L205.949,217.45z     M338.104,353.587c-6.555,3.784-13.734,5.783-20.762,5.783c-10.303,0-18.987-4.39-23.232-11.741    c-7.486-12.969,0.065-31.396,16.836-41.078c6.553-3.784,13.733-5.785,20.76-5.785c10.301,0,18.986,4.391,23.232,11.741    c1.785,3.093,2.706,6.498,2.859,10.021v1.278c0,0.127,0.015,0.251,0.02,0.377C357.552,334.975,350.247,346.574,338.104,353.587z" fill="#ee3b39"/>
	</g>
</g>
<g>
	<g>
		<path d="M511.292,83.215c-2.035-5.134-7.847-7.646-12.98-5.61l-53.601,21.25c-2.853,1.131-5.027,3.509-5.9,6.45    c-0.874,2.941-0.348,6.121,1.426,8.625l12.467,17.603l-43.888,9.338c-5.401,1.149-8.85,6.461-7.7,11.862    c1,4.702,5.151,7.921,9.772,7.921c0.69,0,1.39-0.071,2.091-0.221l58.747-12.5c3.291-0.7,6.009-3.009,7.233-6.143    c1.225-3.134,0.791-6.673-1.154-9.418l-13.893-19.616l41.771-16.56C510.816,94.161,513.329,88.348,511.292,83.215z" fill="#ee3b39"/>
	</g>
</g>
<g>
	<g>
		<path d="M473.03,219.4h-51.036c-5.522,0-10,4.478-10,10c0,5.522,4.478,10,10,10h51.036c5.522,0,10-4.478,10-10    C483.03,223.878,478.552,219.4,473.03,219.4z" fill="#ee3b39"/>
	</g>
</g>
<g>
	<g>
		<path d="M501.998,219.404h-0.238c-5.523,0-10,4.477-10,10c0,5.522,4.477,10,10,10h0.238c5.523,0,10-4.478,10-10    C511.998,223.882,507.521,219.404,501.998,219.404z" fill="#ee3b39"/>
	</g>
</g>
<g>
	<g>
		<path d="M103.184,140.871l-43.889-9.338l12.467-17.602c1.774-2.504,2.301-5.684,1.427-8.626c-0.873-2.941-3.048-5.319-5.901-6.45    l-53.6-21.25c-5.134-2.035-10.946,0.477-12.981,5.61c-2.036,5.134,0.476,10.946,5.61,12.981l41.771,16.56l-13.895,19.615    c-1.945,2.746-2.379,6.285-1.154,9.419c1.225,3.134,3.942,5.442,7.233,6.143l58.75,12.5c0.701,0.149,1.4,0.221,2.09,0.221    c4.621,0,8.771-3.221,9.771-7.921C112.032,147.331,108.585,142.02,103.184,140.871z" fill="#ee3b39"/>
	</g>
</g>
<g>
	<g>
		<path d="M505.684,362.604l-41.77-16.56l13.892-19.613c1.945-2.746,2.379-6.285,1.154-9.419c-1.225-3.134-3.942-5.442-7.233-6.143    l-58.747-12.5c-5.403-1.148-10.712,2.299-11.862,7.7c-1.149,5.401,2.299,10.713,7.7,11.862l43.887,9.338l-12.466,17.6    c-1.773,2.505-2.3,5.685-1.426,8.626c0.873,2.941,3.048,5.319,5.9,6.45l53.602,21.25c1.209,0.479,2.455,0.707,3.682,0.707    c3.98,0,7.744-2.393,9.299-6.317C513.329,370.451,510.817,364.639,505.684,362.604z" fill="#ee3b39"/>
	</g>
</g>
<g>
	<g>
		<path d="M110.883,306.071c-1.148-5.401-6.457-8.85-11.861-7.7l-58.75,12.5c-3.291,0.7-6.009,3.009-7.233,6.143    c-1.225,3.134-0.791,6.674,1.154,9.419l13.894,19.613l-41.77,16.56c-5.134,2.035-7.645,7.848-5.61,12.981    c1.556,3.925,5.318,6.317,9.299,6.317c1.226,0,2.473-0.228,3.683-0.707l53.6-21.25c2.854-1.131,5.028-3.509,5.902-6.45    c0.873-2.942,0.347-6.122-1.428-8.626l-12.468-17.6l43.889-9.338C108.585,316.784,112.033,311.473,110.883,306.071z" fill="#ee3b39"/>
	</g>
</g>
<g>
	<g>
		<path d="M10.239,219.404h-0.237c-5.523,0-10,4.477-10,10c0,5.523,4.478,10,10,10h0.237c5.523,0,10-4.478,10-10    C20.239,223.881,15.762,219.404,10.239,219.404z" fill="#ee3b39"/>
	</g>
</g>
<g>
	<g>
		<path d="M90.004,219.4H38.969c-5.523,0-10,4.478-10,10c0,5.522,4.477,10,10,10h51.036c5.523,0,10-4.478,10-10    C100.004,223.878,95.528,219.4,90.004,219.4z" fill="#ee3b39"/>
	</g>
</g>
<g>
</g>
<g>
</g>
<g>
</g>
<g>
</g>
<g>
</g>
<g>
</g>
<g>
</g>
<g>
</g>
<g>
</g>
<g>
</g>
<g>
</g>
<g>
</g>
<g>
</g>
<g>
</g>
<g>
</g>
</svg>
