<?xml version="1.0" encoding="iso-8859-1"?>
<!-- Generator: Adobe Illustrator 19.0.0, SVG Export Plug-In . SVG Version: 6.00 Build 0)  -->
<svg xmlns="http://www.w3.org/2000/svg" xmlns:xlink="http://www.w3.org/1999/xlink" version="1.1" id="Layer_1" x="0px" y="0px" viewBox="0 0 512 512" style="enable-background:new 0 0 512 512;" xml:space="preserve" width="512px" height="512px">
<g>
	<g>
		<path d="M477.808,486.671l-14.704-105.342l-1.74-68.424l0.218-0.01c-10.815-131.632-0.796-9.68-11.815-143.735    c-1.231-14.98-14.101-26.296-29.116-25.602c-13.143,0.622-41.912,2.275-41.912,2.275l-40.379-20.496L306.785,58.67    c-4.382-9.252-15.435-13.202-24.691-8.819c-9.253,4.382-13.201,15.437-8.819,24.691l34.289,72.394    c1.759,3.712,4.701,6.736,8.364,8.596l40.61,20.613l5.652,68.767l16.591-17.007c0,0,14.277-33.981,14.818-33.889l-5.035,46.619    l-44.364,45.475c-7.149,7.328-7.004,19.066,0.325,26.216c7.324,7.145,19.063,7.009,26.216-0.325l48.837-50.059    c2.898-2.971,4.716-6.829,5.161-10.956l6.405-59.305l9.393,61.011c1.584,10.29-4.897,15.54-9.586,20.345l-42.171,43.228    c-7.132,7.31-14.828,17.14-31.155,17.215l-13.814,37.664c-0.733,1.999-1.176,4.09-1.314,6.216l-7.227,110.945    c-0.833,12.795,9.303,23.693,22.221,23.693c11.627,0,21.412-9.034,22.178-20.802l7.019-107.744l25.032-68.25l5.186-0.24    l1.749,68.757c0.022,0.841,0.09,1.678,0.207,2.511l14.88,106.595c1.704,12.207,12.986,20.656,25.109,18.957    C471.019,510.083,479.507,498.841,477.808,486.671z" fill="#FFFFFF"/>
	</g>
</g>
<g>
	<g>
		<circle cx="391.754" cy="91.592" r="38.148" fill="#FFFFFF"/>
	</g>
</g>
<g>
	<g>
		<path d="M504.488,60.135c-0.836-4.136-4.867-6.81-9.003-5.977l-45.005,9.094c-4.136,0.836-6.812,4.867-5.977,9.003    c0.835,4.134,4.861,6.812,9.003,5.977l45.005-9.094C502.647,68.301,505.322,64.272,504.488,60.135z" fill="#FFFFFF"/>
	</g>
</g>
<g>
	<g>
		<path d="M488.369,2.346c-2.924-3.041-7.759-3.14-10.803-0.214l-42.671,41.01c-3.042,2.924-3.139,7.761-0.214,10.803    c2.927,3.046,7.765,3.135,10.803,0.214l42.671-41.01C491.197,10.225,491.294,5.389,488.369,2.346z" fill="#FFFFFF"/>
	</g>
</g>
<g>
	<g>
		<circle cx="120.151" cy="104.38" r="36.734" fill="#FFFFFF"/>
	</g>
</g>
<g>
	<g>
		<path d="M250.954,167.843c-4.897-7.777-15.171-10.114-22.953-5.217l-54.003,33.999l-39.545-25.717l26.206,8.001l-1.002-5.475    c-1.984-10.845-10.777-18.684-20.998-18.684c-13.162,0-22.419,0-37.026,0c-5.144,0-9.914,1.974-13.642,5.315    c-1.561,0.781,3.151-2.31-61.24,41.083c-3.995,2.692-6.627,6.982-7.217,11.761c-0.59,4.781,0.918,9.583,4.137,13.164    l39.325,43.765l-15.09,82.468c-1.115,6.089,3.215,11.767,8.927,11.767c5.63,0,13.068,0,21.578,0v126.66    c0,11.745,9.522,21.266,21.266,21.266c2.872,0,5.607-0.577,8.105-1.608c-3.94-5.56-6.264-12.34-6.264-19.658V364.074    c4.209,0,8.504,0,12.824,0v126.66c0,11.745,9.521,21.266,21.266,21.266c11.745,0,21.265-9.521,21.265-21.266v-126.66    c3.92,0,23.647,0,26.583,0c5.735,0,10.042-5.679,8.927-11.767l-18.333-100.194c-6.852,0.329-13.684-2.43-18.348-7.824    l-39.399-45.475l48.474,31.522c5.413,3.519,12.416,3.609,17.941,0.132l63.016-39.673    C253.515,185.898,255.851,175.622,250.954,167.843z M70.567,228.461l-9.347-10.403l12.833-8.648L70.567,228.461z" fill="#FFFFFF"/>
	</g>
</g>
<g>
	<g>
		<path d="M61.52,75.342l-45.004-9.094c-4.134-0.83-8.165,1.841-9.003,5.977c-0.835,4.136,1.84,8.166,5.977,9.003l45.005,9.093    c4.144,0.836,8.166-1.846,9.002-5.976C68.332,80.209,65.657,76.178,61.52,75.342z" fill="#FFFFFF"/>
	</g>
</g>
<g>
	<g>
		<path d="M77.105,55.232l-42.672-41.01c-3.042-2.925-7.879-2.827-10.803,0.214c-2.925,3.042-2.828,7.879,0.214,10.803l42.672,41.01    c3.039,2.921,7.877,2.831,10.803-0.214C80.244,62.992,80.147,58.155,77.105,55.232z" fill="#FFFFFF"/>
	</g>
</g>
<g>
</g>
<g>
</g>
<g>
</g>
<g>
</g>
<g>
</g>
<g>
</g>
<g>
</g>
<g>
</g>
<g>
</g>
<g>
</g>
<g>
</g>
<g>
</g>
<g>
</g>
<g>
</g>
<g>
</g>
</svg>
