<?xml version="1.0" encoding="utf-8"?>
<!-- Generator: Adobe Illustrator 16.0.3, SVG Export Plug-In . SVG Version: 6.00 Build 0)  -->
<!DOCTYPE svg PUBLIC "-//W3C//DTD SVG 1.1//EN" "http://www.w3.org/Graphics/SVG/1.1/DTD/svg11.dtd">
<svg version="1.1" id="Layer_1" xmlns="http://www.w3.org/2000/svg" xmlns:xlink="http://www.w3.org/1999/xlink" x="0px" y="0px"
	 width="1600px" height="512.942px" viewBox="0 0 1600 512.942" enable-background="new 0 0 1600 512.942" xml:space="preserve">
<rect fill="#EF3B39" width="1600.23" height="512.942"/>
<g>
	<g>
		<path fill="#FFFFFF" d="M221.338,345.065h-45.562V167.878h45.562v69.609h22.782l39.487-69.609h48.095l-49.613,87.329
			l49.359,89.858h-48.093l-39.234-72.14h-22.782V345.065z"/>
		<path fill="#FFFFFF" d="M501.296,296.973c0,17.719-4.01,30.588-12.023,38.601c-8.017,8.018-20.883,12.023-38.602,12.023h-63.281
			c-17.719,0-30.589-4.006-38.601-12.023c-8.018-8.013-12.024-20.882-12.024-38.601v-81c0-17.719,4.006-30.585,12.024-38.603
			c8.012-8.012,20.882-12.022,38.601-12.022h63.281c17.719,0,30.585,4.01,38.602,12.022c8.013,8.017,12.023,20.883,12.023,38.603
			V296.973z M455.734,215.973c0-10.125-5.063-15.188-15.188-15.188h-43.031c-10.125,0-15.188,5.063-15.188,15.188v81
			c0,10.124,5.063,15.188,15.188,15.188h43.031c10.125,0,15.188-5.063,15.188-15.188V215.973z"/>
		<path fill="#FFFFFF" d="M678.483,246.348l-35.438,63.28h-35.437l-35.438-63.28v98.718h-45.562V167.878h48.093l50.625,93.657
			l50.625-93.657h48.094v177.187h-45.562V246.348z"/>
		<path fill="#FFFFFF" d="M754.418,167.878h106.313c17.718,0,30.584,4.011,38.601,12.023c8.014,8.017,12.024,20.883,12.024,38.602
			v25.313c0,17.719-4.011,30.588-12.024,38.602c-8.017,8.017-20.883,12.023-38.601,12.023h-60.75v50.624h-45.563V167.878z
			 M865.793,218.503c0-10.125-5.062-15.187-15.187-15.187h-50.625v55.687h50.625c10.125,0,15.187-5.062,15.187-15.187V218.503z"/>
		<path fill="#FFFFFF" d="M1093.604,296.973c0,17.719-4.011,30.588-12.023,38.601c-8.017,8.018-20.883,12.023-38.602,12.023h-63.281
			c-17.719,0-30.589-4.006-38.602-12.023c-8.017-8.013-12.023-20.882-12.023-38.601v-81c0-17.719,4.007-30.585,12.023-38.603
			c8.013-8.012,20.883-12.022,38.602-12.022h63.281c17.719,0,30.585,4.01,38.602,12.022c8.013,8.017,12.023,20.883,12.023,38.603
			V296.973z M1048.041,215.973c0-10.125-5.063-15.188-15.188-15.188h-43.031c-10.125,0-15.188,5.063-15.188,15.188v81
			c0,10.124,5.063,15.188,15.188,15.188h43.031c10.125,0,15.188-5.063,15.188-15.188V215.973z"/>
		<path fill="#FFFFFF" d="M1113.601,308.362c46.234,2.532,77.538,3.798,93.909,3.798c3.879,0,6.961-1.14,9.238-3.419
			c2.278-2.276,3.417-5.354,3.417-9.238v-22.78h-58.219c-17.718,0-30.588-4.007-38.602-12.023
			c-8.017-8.014-12.023-20.883-12.023-38.602v-7.594c0-17.719,4.007-30.584,12.023-38.602c8.014-8.012,20.884-12.023,38.602-12.023
			h88.848v35.438h-78.723c-10.125,0-15.187,5.062-15.187,15.187v5.063c0,10.125,5.062,15.187,15.187,15.187h45.563
			c16.535,0,28.686,3.883,36.449,11.645c7.76,7.763,11.645,19.913,11.645,36.449v12.656c0,16.541-3.885,28.69-11.645,36.45
			c-7.764,7.765-19.914,11.644-36.449,11.644c-8.606,0-17.72-0.17-27.338-0.505l-23.287-1.014
			c-17.213-0.847-35.02-2.024-53.409-3.543V308.362z"/>
		<path fill="#FFFFFF" d="M1428.994,345.065h-140.485V167.878h140.485v35.438h-94.923v34.171h74.673v35.438h-74.673v36.702h94.923
			V345.065z"/>
	</g>
	<path fill="#FFFFFF" d="M79.333,84.932v343.079h1441.563V84.932H79.333z M1476.255,386.395H128.516V126.548h1347.739V386.395z"/>
</g>
</svg>
