<?xml version="1.0" encoding="utf-8"?>
<!-- Generator: Adobe Illustrator 16.0.3, SVG Export Plug-In . SVG Version: 6.00 Build 0)  -->
<!DOCTYPE svg PUBLIC "-//W3C//DTD SVG 1.1//EN" "http://www.w3.org/Graphics/SVG/1.1/DTD/svg11.dtd">
<svg version="1.1" id="Layer_1" xmlns="http://www.w3.org/2000/svg" xmlns:xlink="http://www.w3.org/1999/xlink" x="0px" y="0px"
	 width="1920px" height="1080px" viewBox="0 0 1920 1080" enable-background="new 0 0 1920 1080" xml:space="preserve">
<rect fill="#EF3B39" width="1920" height="1080"/>
<g>
	<g>
		<defs>
			<rect id="SVGID_1_" x="160" y="283.529" width="1600" height="512.942"/>
		</defs>
		<clipPath id="SVGID_2_">
			<use xlink:href="#SVGID_1_"  overflow="visible"/>
		</clipPath>
		<rect x="160" y="283.529" clip-path="url(#SVGID_2_)" fill="#EF3B39" width="1600" height="512.942"/>
		<polygon clip-path="url(#SVGID_2_)" fill="#FFFFFF" points="381.338,628.594 335.776,628.594 335.776,451.407 381.338,451.407 
			381.338,521.016 404.121,521.016 443.607,451.407 491.701,451.407 442.088,538.736 491.447,628.594 443.354,628.594 
			404.121,556.454 381.338,556.454 		"/>
		<g clip-path="url(#SVGID_2_)">
			<defs>
				<rect id="SVGID_3_" x="160" y="283.529" width="1600" height="512.942"/>
			</defs>
			<clipPath id="SVGID_4_">
				<use xlink:href="#SVGID_3_"  overflow="visible"/>
			</clipPath>
			<path clip-path="url(#SVGID_4_)" fill="#FFFFFF" d="M661.296,580.501c0,17.72-4.01,30.588-12.023,38.602
				c-8.017,8.017-20.883,12.022-38.602,12.022h-63.281c-17.719,0-30.589-4.006-38.601-12.022
				c-8.018-8.014-12.024-20.882-12.024-38.602v-81c0-17.719,4.006-30.585,12.024-38.603c8.012-8.012,20.882-12.022,38.601-12.022
				h63.281c17.719,0,30.585,4.01,38.602,12.022c8.013,8.018,12.023,20.884,12.023,38.603V580.501z M615.734,499.501
				c0-10.125-5.063-15.188-15.188-15.188h-43.031c-10.125,0-15.188,5.063-15.188,15.188v81c0,10.124,5.063,15.188,15.188,15.188
				h43.031c10.125,0,15.188-5.064,15.188-15.188V499.501z"/>
			<polygon clip-path="url(#SVGID_4_)" fill="#FFFFFF" points="838.483,529.876 803.045,593.156 767.608,593.156 732.17,529.876 
				732.17,628.595 686.608,628.595 686.608,451.407 734.701,451.407 785.326,545.064 835.951,451.407 884.045,451.407 
				884.045,628.595 838.483,628.595 			"/>
			<path clip-path="url(#SVGID_4_)" fill="#FFFFFF" d="M914.418,451.407h106.313c17.719,0,30.584,4.011,38.602,12.023
				c8.014,8.018,12.023,20.883,12.023,38.602v25.313c0,17.719-4.01,30.588-12.023,38.603c-8.018,8.016-20.883,12.022-38.602,12.022
				h-60.75v50.624h-45.563V451.407z M1025.793,502.032c0-10.125-5.063-15.187-15.188-15.187h-50.625v55.688h50.625
				c10.125,0,15.188-5.063,15.188-15.188V502.032z"/>
			<path clip-path="url(#SVGID_4_)" fill="#FFFFFF" d="M1253.604,580.501c0,17.72-4.011,30.588-12.023,38.602
				c-8.018,8.017-20.883,12.022-38.602,12.022h-63.281c-17.72,0-30.59-4.006-38.602-12.022
				c-8.017-8.014-12.023-20.882-12.023-38.602v-81c0-17.719,4.007-30.585,12.023-38.603c8.012-8.012,20.882-12.022,38.602-12.022
				h63.281c17.719,0,30.584,4.01,38.602,12.022c8.013,8.018,12.023,20.884,12.023,38.603V580.501z M1208.041,499.501
				c0-10.125-5.063-15.188-15.188-15.188h-43.03c-10.125,0-15.188,5.063-15.188,15.188v81c0,10.124,5.063,15.188,15.188,15.188
				h43.03c10.126,0,15.188-5.064,15.188-15.188V499.501z"/>
			<path clip-path="url(#SVGID_4_)" fill="#FFFFFF" d="M1273.601,591.891c46.233,2.532,77.538,3.798,93.909,3.798
				c3.879,0,6.961-1.14,9.238-3.419c2.278-2.275,3.416-5.354,3.416-9.237v-22.781h-58.218c-17.718,0-30.588-4.006-38.602-12.023
				c-8.017-8.014-12.023-20.883-12.023-38.602v-7.594c0-17.719,4.007-30.584,12.023-38.601c8.014-8.013,20.884-12.024,38.602-12.024
				h88.848v35.438h-78.723c-10.125,0-15.187,5.062-15.187,15.187v5.063c0,10.125,5.062,15.187,15.187,15.187h45.563
				c16.535,0,28.686,3.883,36.449,11.645c7.76,7.763,11.645,19.912,11.645,36.448v12.657c0,16.541-3.885,28.689-11.645,36.449
				c-7.764,7.765-19.914,11.644-36.449,11.644c-8.606,0-17.721-0.17-27.338-0.505l-23.287-1.014
				c-17.213-0.847-35.02-2.024-53.409-3.543V591.891z"/>
			<polygon clip-path="url(#SVGID_4_)" fill="#FFFFFF" points="1588.994,628.594 1448.509,628.594 1448.509,451.407 
				1588.994,451.407 1588.994,486.845 1494.071,486.845 1494.071,521.016 1568.744,521.016 1568.744,556.454 1494.071,556.454 
				1494.071,593.156 1588.994,593.156 			"/>
			<path clip-path="url(#SVGID_4_)" fill="#FFFFFF" d="M239.333,711.539h1441.563v-343.08H239.333V711.539z M1636.255,669.923
				H288.516V410.076h1347.739V669.923z"/>
		</g>
	</g>
</g>
</svg>
