<?xml version="1.0" encoding="utf-8"?>
<!-- Generator: Adobe Illustrator 16.0.3, SVG Export Plug-In . SVG Version: 6.00 Build 0)  -->
<!DOCTYPE svg PUBLIC "-//W3C//DTD SVG 1.1//EN" "http://www.w3.org/Graphics/SVG/1.1/DTD/svg11.dtd">
<svg version="1.1" id="Layer_1" xmlns="http://www.w3.org/2000/svg" xmlns:xlink="http://www.w3.org/1999/xlink" x="0px" y="0px"
	 width="2560px" height="1440px" viewBox="0 0 2560 1440" enable-background="new 0 0 2560 1440" xml:space="preserve">
<rect fill="#EF3B39" width="2560" height="1440"/>
<g>
	<g>
		<defs>
			<rect id="SVGID_1_" x="480" y="463.528" width="1600" height="512.942"/>
		</defs>
		<clipPath id="SVGID_2_">
			<use xlink:href="#SVGID_1_"  overflow="visible"/>
		</clipPath>
		<rect x="480" y="463.528" clip-path="url(#SVGID_2_)" fill="#EF3B39" width="1600" height="512.942"/>
		<polygon clip-path="url(#SVGID_2_)" fill="#FFFFFF" points="701.338,808.593 655.776,808.593 655.776,631.406 701.338,631.406 
			701.338,701.015 724.12,701.015 763.607,631.406 811.701,631.406 762.088,718.735 811.447,808.593 763.354,808.593 
			724.12,736.453 701.338,736.453 		"/>
		<g clip-path="url(#SVGID_2_)">
			<defs>
				<rect id="SVGID_3_" x="480" y="463.528" width="1600" height="512.942"/>
			</defs>
			<clipPath id="SVGID_4_">
				<use xlink:href="#SVGID_3_"  overflow="visible"/>
			</clipPath>
			<path clip-path="url(#SVGID_4_)" fill="#FFFFFF" d="M981.296,760.5c0,17.72-4.01,30.588-12.023,38.602
				c-8.017,8.017-20.883,12.022-38.602,12.022H867.39c-17.719,0-30.589-4.006-38.601-12.022
				c-8.018-8.014-12.024-20.882-12.024-38.602v-81c0-17.719,4.006-30.585,12.024-38.603c8.012-8.012,20.882-12.022,38.601-12.022
				h63.281c17.719,0,30.585,4.01,38.602,12.022c8.013,8.018,12.023,20.884,12.023,38.603V760.5z M935.734,679.5
				c0-10.125-5.063-15.188-15.188-15.188h-43.031c-10.125,0-15.188,5.063-15.188,15.188v81c0,10.124,5.063,15.188,15.188,15.188
				h43.031c10.125,0,15.188-5.064,15.188-15.188V679.5z"/>
			<polygon clip-path="url(#SVGID_4_)" fill="#FFFFFF" points="1158.483,709.875 1123.045,773.155 1087.608,773.155 
				1052.17,709.875 1052.17,808.594 1006.608,808.594 1006.608,631.406 1054.701,631.406 1105.326,725.063 1155.951,631.406 
				1204.045,631.406 1204.045,808.594 1158.483,808.594 			"/>
			<path clip-path="url(#SVGID_4_)" fill="#FFFFFF" d="M1234.417,631.406h106.313c17.719,0,30.584,4.011,38.602,12.023
				c8.014,8.018,12.023,20.883,12.023,38.602v25.313c0,17.719-4.01,30.588-12.023,38.603c-8.018,8.016-20.883,12.022-38.602,12.022
				h-60.75v50.624h-45.563V631.406z M1345.793,682.031c0-10.125-5.063-15.187-15.188-15.187h-50.625v55.688h50.625
				c10.125,0,15.188-5.063,15.188-15.188V682.031z"/>
			<path clip-path="url(#SVGID_4_)" fill="#FFFFFF" d="M1573.604,760.5c0,17.72-4.012,30.588-12.023,38.602
				c-8.018,8.017-20.884,12.022-38.602,12.022h-63.282c-17.719,0-30.589-4.006-38.601-12.022
				c-8.018-8.014-12.024-20.882-12.024-38.602v-81c0-17.719,4.007-30.585,12.024-38.603c8.012-8.012,20.882-12.022,38.601-12.022
				h63.282c17.718,0,30.584,4.01,38.602,12.022c8.012,8.018,12.023,20.884,12.023,38.603V760.5z M1528.041,679.5
				c0-10.125-5.063-15.188-15.188-15.188h-43.031c-10.125,0-15.187,5.063-15.187,15.188v81c0,10.124,5.062,15.188,15.187,15.188
				h43.031c10.126,0,15.188-5.064,15.188-15.188V679.5z"/>
			<path clip-path="url(#SVGID_4_)" fill="#FFFFFF" d="M1593.6,771.89c46.234,2.532,77.539,3.798,93.91,3.798
				c3.879,0,6.961-1.14,9.237-3.419c2.278-2.275,3.417-5.354,3.417-9.237V740.25h-58.219c-17.717,0-30.588-4.006-38.602-12.023
				c-8.016-8.014-12.023-20.883-12.023-38.602v-7.594c0-17.719,4.008-30.584,12.023-38.601c8.014-8.013,20.885-12.024,38.602-12.024
				h88.848v35.438h-78.723c-10.125,0-15.186,5.062-15.186,15.187v5.063c0,10.125,5.061,15.187,15.186,15.187h45.564
				c16.534,0,28.686,3.883,36.448,11.645c7.761,7.763,11.646,19.912,11.646,36.448v12.657c0,16.541-3.885,28.689-11.646,36.449
				c-7.763,7.765-19.914,11.644-36.448,11.644c-8.607,0-17.721-0.17-27.339-0.505l-23.286-1.014
				c-17.214-0.847-35.02-2.024-53.41-3.543V771.89z"/>
			<polygon clip-path="url(#SVGID_4_)" fill="#FFFFFF" points="1908.994,808.593 1768.508,808.593 1768.508,631.406 
				1908.994,631.406 1908.994,666.844 1814.07,666.844 1814.07,701.015 1888.744,701.015 1888.744,736.453 1814.07,736.453 
				1814.07,773.155 1908.994,773.155 			"/>
			<path clip-path="url(#SVGID_4_)" fill="#FFFFFF" d="M559.333,891.538h1441.564v-343.08H559.333V891.538z M1956.254,849.922
				H608.516V590.075h1347.738V849.922z"/>
		</g>
	</g>
</g>
</svg>
